<svg width="16" height="15" viewBox="0 0 16 15" fill="none" xmlns="http://www.w3.org/2000/svg">
<path fill-rule="evenodd" clip-rule="evenodd" d="M8 0C3.86 0 0.5 3.36 0.5 7.5C0.5 11.64 3.86 15 8 15C12.14 15 15.5 11.64 15.5 7.5C15.5 3.36 12.14 0 8 0ZM5.9675 10.7176L3.275 8.02511C2.9825 7.73261 2.9825 7.26011 3.275 6.96761C3.5675 6.67511 4.04 6.67511 4.3325 6.96761L6.5 9.12761L11.66 3.96761C11.9525 3.67511 12.425 3.67511 12.7175 3.96761C13.01 4.26011 13.01 4.73261 12.7175 5.02511L7.025 10.7176C6.74 11.0101 6.26 11.0101 5.9675 10.7176Z" fill="#97BFA2"/>
</svg>
