<svg width="214" height="99" viewBox="0 0 214 99" fill="none" xmlns="http://www.w3.org/2000/svg">
<path d="M13.205 37.65H18.98V49.27H23.985V37.65H29.76V66H23.985V53.435H18.98V66H13.205V37.65ZM42.0321 66.385C39.0221 66.385 36.8755 65.6033 35.5921 64.04C34.3088 62.4533 33.6671 60.1317 33.6671 57.075V46.505C33.6671 43.4483 34.3088 41.15 35.5921 39.61C36.8755 38.07 39.0221 37.3 42.0321 37.3C45.0188 37.3 47.1538 38.0817 48.4371 39.645C49.7438 41.185 50.3971 43.4717 50.3971 46.505V57.11C50.3971 60.1433 49.7438 62.4533 48.4371 64.04C47.1538 65.6033 45.0188 66.385 42.0321 66.385ZM42.0321 62.255C43.0121 62.255 43.6655 61.9283 43.9921 61.275C44.3421 60.5983 44.5171 59.6767 44.5171 58.51V45.105C44.5171 43.9383 44.3421 43.04 43.9921 42.41C43.6655 41.7567 43.0121 41.43 42.0321 41.43C41.0521 41.43 40.3871 41.7567 40.0371 42.41C39.7105 43.04 39.5471 43.9383 39.5471 45.105V58.51C39.5471 59.7 39.7105 60.6217 40.0371 61.275C40.3638 61.9283 41.0288 62.255 42.0321 62.255ZM54.6382 37.65H60.7632L64.2632 55.535L67.9732 37.65H73.8882L74.4132 66H70.2132L69.7582 46.75L66.1182 66H62.5482L58.8032 46.645L58.3832 66H54.1482L54.6382 37.65ZM78.5891 37.65H90.9441V41.64H84.3291V49.165H89.4391V53.19H84.3291V62.08H91.0141V66H78.5891V37.65ZM101.845 66.385C98.835 66.385 96.7 65.58 95.44 63.97C94.18 62.3367 93.55 59.9917 93.55 56.935V46.785C93.55 43.6583 94.1683 41.3017 95.405 39.715C96.665 38.105 98.8116 37.3 101.845 37.3C104.738 37.3 106.78 38.0117 107.97 39.435C109.183 40.835 109.79 42.8533 109.79 45.49V47.87H104.19V45.245C104.19 44.405 104.143 43.7283 104.05 43.215C103.98 42.7017 103.77 42.2817 103.42 41.955C103.093 41.605 102.58 41.43 101.88 41.43C100.83 41.43 100.153 41.7683 99.85 42.445C99.5466 43.1217 99.395 44.1133 99.395 45.42V58.3C99.395 59.63 99.57 60.6217 99.92 61.275C100.27 61.9283 100.923 62.255 101.88 62.255C102.86 62.255 103.49 61.9283 103.77 61.275C104.05 60.5983 104.19 59.6067 104.19 58.3V55.535H109.79V57.88C109.79 60.5867 109.195 62.6867 108.005 64.18C106.815 65.65 104.762 66.385 101.845 66.385ZM121.261 66.385C118.251 66.385 116.104 65.6033 114.821 64.04C113.537 62.4533 112.896 60.1317 112.896 57.075V46.505C112.896 43.4483 113.537 41.15 114.821 39.61C116.104 38.07 118.251 37.3 121.261 37.3C124.247 37.3 126.382 38.0817 127.666 39.645C128.972 41.185 129.626 43.4717 129.626 46.505V57.11C129.626 60.1433 128.972 62.4533 127.666 64.04C126.382 65.6033 124.247 66.385 121.261 66.385ZM121.261 62.255C122.241 62.255 122.894 61.9283 123.221 61.275C123.571 60.5983 123.746 59.6767 123.746 58.51V45.105C123.746 43.9383 123.571 43.04 123.221 42.41C122.894 41.7567 122.241 41.43 121.261 41.43C120.281 41.43 119.616 41.7567 119.266 42.41C118.939 43.04 118.776 43.9383 118.776 45.105V58.51C118.776 59.7 118.939 60.6217 119.266 61.275C119.592 61.9283 120.257 62.255 121.261 62.255ZM141.427 66.385C138.417 66.385 136.27 65.6033 134.987 64.04C133.703 62.4533 133.062 60.1317 133.062 57.075V46.505C133.062 43.4483 133.703 41.15 134.987 39.61C136.27 38.07 138.417 37.3 141.427 37.3C144.413 37.3 146.548 38.0817 147.832 39.645C149.138 41.185 149.792 43.4717 149.792 46.505V57.11C149.792 60.1433 149.138 62.4533 147.832 64.04C146.548 65.6033 144.413 66.385 141.427 66.385ZM141.427 62.255C142.407 62.255 143.06 61.9283 143.387 61.275C143.737 60.5983 143.912 59.6767 143.912 58.51V45.105C143.912 43.9383 143.737 43.04 143.387 42.41C143.06 41.7567 142.407 41.43 141.427 41.43C140.447 41.43 139.782 41.7567 139.432 42.41C139.105 43.04 138.942 43.9383 138.942 45.105V58.51C138.942 59.7 139.105 60.6217 139.432 61.275C139.758 61.9283 140.423 62.255 141.427 62.255ZM153.648 37.65H159.388V49.62L164.533 37.65H170.133L164.813 50.39L170.553 66H164.708L160.333 53.33L159.388 54.87V66H153.648V37.65ZM172.959 37.65H185.314V41.64H178.699V49.165H183.809V53.19H178.699V62.08H185.384V66H172.959V37.65ZM188.34 37.65H195.27C197.65 37.65 199.505 37.965 200.835 38.595C202.188 39.2017 203.145 40.1467 203.705 41.43C204.288 42.7133 204.58 44.4167 204.58 46.54V56.865C204.58 59.035 204.3 60.785 203.74 62.115C203.18 63.4217 202.235 64.4017 200.905 65.055C199.575 65.685 197.743 66 195.41 66H188.34V37.65ZM195.34 61.975C196.343 61.975 197.078 61.8233 197.545 61.52C198.035 61.1933 198.338 60.7267 198.455 60.12C198.595 59.5133 198.665 58.6383 198.665 57.495V45.77C198.665 44.6967 198.583 43.8917 198.42 43.355C198.28 42.795 197.977 42.3867 197.51 42.13C197.043 41.85 196.308 41.71 195.305 41.71H194.08V61.975H195.34Z" fill="white"/>
<path d="M93.3238 82V72.28H95.0998V80.776H97.4518V82H93.3238ZM98.1826 82L100.127 72.28H102.023L103.967 82H102.323L101.939 79.756H100.247L99.8506 82H98.1826ZM100.427 78.628H101.747L101.087 74.548L100.427 78.628ZM108.127 78.268V76.696H109.699V78.268H108.127ZM116.999 82.132C116.311 82.132 115.763 82.004 115.355 81.748C114.947 81.492 114.655 81.124 114.479 80.644C114.303 80.164 114.215 79.596 114.215 78.94V75.304C114.215 74.648 114.303 74.088 114.479 73.624C114.655 73.152 114.947 72.792 115.355 72.544C115.763 72.296 116.311 72.172 116.999 72.172C117.703 72.172 118.255 72.296 118.655 72.544C119.063 72.792 119.355 73.152 119.531 73.624C119.715 74.088 119.807 74.648 119.807 75.304V78.952C119.807 79.6 119.715 80.164 119.531 80.644C119.355 81.116 119.063 81.484 118.655 81.748C118.255 82.004 117.703 82.132 116.999 82.132ZM116.999 80.824C117.295 80.824 117.511 80.76 117.647 80.632C117.791 80.504 117.887 80.328 117.935 80.104C117.983 79.88 118.007 79.636 118.007 79.372V74.896C118.007 74.624 117.983 74.38 117.935 74.164C117.887 73.948 117.791 73.78 117.647 73.66C117.511 73.532 117.295 73.468 116.999 73.468C116.719 73.468 116.507 73.532 116.363 73.66C116.219 73.78 116.123 73.948 116.075 74.164C116.027 74.38 116.003 74.624 116.003 74.896V79.372C116.003 79.636 116.023 79.88 116.063 80.104C116.111 80.328 116.207 80.504 116.351 80.632C116.495 80.76 116.711 80.824 116.999 80.824ZM124.037 82.132C123.325 82.132 122.765 81.992 122.357 81.712C121.957 81.432 121.677 81.052 121.517 80.572C121.357 80.084 121.277 79.524 121.277 78.892V75.424C121.277 74.76 121.357 74.184 121.517 73.696C121.677 73.208 121.957 72.832 122.357 72.568C122.765 72.304 123.325 72.172 124.037 72.172C124.709 72.172 125.233 72.288 125.609 72.52C125.993 72.744 126.265 73.068 126.425 73.492C126.585 73.916 126.665 74.408 126.665 74.968V75.784H124.961V74.944C124.961 74.672 124.945 74.424 124.913 74.2C124.889 73.976 124.813 73.8 124.685 73.672C124.565 73.536 124.353 73.468 124.049 73.468C123.745 73.468 123.521 73.54 123.377 73.684C123.241 73.82 123.153 74.008 123.113 74.248C123.073 74.48 123.053 74.744 123.053 75.04V79.264C123.053 79.616 123.081 79.908 123.137 80.14C123.193 80.364 123.293 80.536 123.437 80.656C123.589 80.768 123.793 80.824 124.049 80.824C124.345 80.824 124.553 80.756 124.673 80.62C124.801 80.476 124.881 80.288 124.913 80.056C124.945 79.824 124.961 79.564 124.961 79.276V78.4H126.665V79.18C126.665 79.756 126.589 80.268 126.437 80.716C126.285 81.156 126.017 81.504 125.633 81.76C125.257 82.008 124.725 82.132 124.037 82.132Z" fill="white"/>
<path d="M2.4082 29.4H212.408" stroke="white" stroke-miterlimit="10" stroke-linecap="round" stroke-linejoin="round"/>
<path d="M8 75.4H60" stroke="white" stroke-miterlimit="10" stroke-linecap="round" stroke-linejoin="round"/>
<path d="M154 75.4H206" stroke="white" stroke-miterlimit="10" stroke-linecap="round" stroke-linejoin="round"/>
<path d="M154 77.4H190" stroke="white" stroke-miterlimit="10" stroke-linecap="round" stroke-linejoin="round"/>
<path d="M24 77.4H60" stroke="white" stroke-miterlimit="10" stroke-linecap="round" stroke-linejoin="round"/>
<path d="M109.008 27H105.808C105.708 27 105.608 27 105.508 26.9C105.408 26.8 105.408 26.7 105.408 26.6L106.208 0.399998C106.208 0.199998 106.408 0 106.608 0H108.208C108.408 0 108.608 0.199998 108.608 0.399998L109.408 26.5V26.6C109.408 26.8 109.308 27 109.008 27ZM106.208 26.1H108.608L107.808 0.799999H107.008L106.208 26.1Z" fill="white"/>
<path d="M108.608 24.3H106.208C106.008 24.3 105.808 24.1 105.808 23.8C105.808 23.5 106.008 23.3 106.208 23.3H108.608C108.808 23.3 109.008 23.5 109.008 23.8C109.008 24.1 108.808 24.3 108.608 24.3Z" fill="white"/>
<path d="M108.608 22.5H106.208C106.008 22.5 105.808 22.3 105.808 22C105.808 21.7 106.008 21.5 106.208 21.5H108.608C108.808 21.5 109.008 21.7 109.008 22C109.008 22.3 108.808 22.5 108.608 22.5Z" fill="white"/>
<path d="M113.008 27H111.408C111.208 27 111.008 26.8 111.008 26.6L110.208 0.399998C110.208 0.299998 110.208 0.199998 110.308 0.0999985C110.408 -1.52737e-06 110.508 0 110.608 0H113.808C113.908 0 114.008 -1.52737e-06 114.108 0.0999985C114.208 0.199998 114.208 0.299998 114.208 0.399998L113.408 26.6C113.408 26.8 113.208 27 113.008 27ZM111.808 26.1H112.608L113.408 0.799999H111.008L111.808 26.1Z" fill="white"/>
<path d="M113.408 3.5H111.008C110.808 3.5 110.608 3.3 110.608 3C110.608 2.7 110.808 2.5 111.008 2.5H113.408C113.608 2.5 113.808 2.7 113.808 3C113.808 3.3 113.708 3.5 113.408 3.5Z" fill="white"/>
<path d="M113.408 5.30005H111.008C110.808 5.30005 110.608 5.10005 110.608 4.80005C110.608 4.50005 110.808 4.30005 111.008 4.30005H113.408C113.608 4.30005 113.808 4.50005 113.808 4.80005C113.808 5.10005 113.708 5.30005 113.408 5.30005Z" fill="white"/>
<path d="M79.5082 26.6999C73.5082 26.6999 67.9082 23.3999 66.6082 22.4999C66.1082 22.9999 65.2082 23.7999 64.6082 24.0999C64.3082 24.1999 64.0082 24.2999 63.8082 24.2999C63.1082 24.2999 62.8082 23.7999 62.8082 23.2999V18.1999C62.8082 17.6999 63.2082 17.1999 63.8082 17.1999C64.1082 17.1999 64.3082 17.2999 64.6082 17.3999C65.1082 17.6999 66.0082 18.4999 66.6082 18.8999C66.7082 18.8999 66.7082 18.7999 66.8082 18.6999C68.8082 17.2999 74.1082 13.3999 79.5082 13.3999C83.4082 13.3999 87.0082 16.4999 87.9082 20.5999C87.9082 20.6999 87.9082 20.6999 87.9082 20.7999C87.1082 24.3999 83.9082 26.6999 79.5082 26.6999ZM66.5082 21.4999C66.6082 21.4999 66.7082 21.4999 66.7082 21.5999C68.4082 22.7999 74.1082 25.7999 79.5082 25.7999C83.5082 25.7999 86.3082 23.8999 87.0082 20.6999C86.2082 16.9999 82.9082 14.2999 79.5082 14.2999C74.3082 14.2999 69.2082 17.9999 67.3082 19.3999C67.1082 19.5999 66.9082 19.6999 66.8082 19.7999C66.6082 19.8999 66.4082 19.8999 66.3082 19.6999C65.9082 19.2999 64.8082 18.2999 64.3082 18.0999C64.1082 17.9999 63.9082 17.9999 63.9082 17.9999C63.7082 17.9999 63.7082 18.0999 63.7082 18.1999V23.2999C63.7082 23.3999 63.7082 23.4999 63.9082 23.4999C64.0082 23.4999 64.1082 23.4999 64.3082 23.3999C64.8082 23.1999 65.9082 22.1999 66.3082 21.7999C66.3082 21.5999 66.4082 21.4999 66.5082 21.4999Z" fill="white"/>
<path d="M83.7082 20.2C83.5082 20.2 83.3082 20.1 83.1082 19.9C82.9082 19.7 82.9082 19.5 82.9082 19.3C82.9082 19.1 83.0082 18.9 83.1082 18.7C83.4082 18.4 84.0082 18.4 84.3082 18.7C84.5082 18.9 84.5082 19.1 84.5082 19.3C84.5082 19.5 84.4082 19.7 84.3082 19.9C84.1082 20.1 83.9082 20.2 83.7082 20.2Z" fill="white"/>
<path d="M71.5083 16.4C71.3083 16.4 71.1083 16.2 71.1083 16C71.1083 14 73.1083 12.2 75.3083 12.2C78.1083 12.2 80.8083 12.2 80.8083 13.9C80.8083 14.1 80.6083 14.2999 80.4083 14.2999C80.2083 14.2999 80.0083 14.1 80.0083 13.9C80.0083 13 77.3083 13 75.4083 13C73.5083 13 72.0083 14.6 72.0083 16C71.9083 16.2 71.8083 16.4 71.5083 16.4Z" fill="white"/>
<path d="M74.0083 27.9C72.1083 27.9 71.1083 26.7 71.1083 24.5C71.1083 24.3 71.3083 24.1 71.5083 24.1C71.7083 24.1 71.9083 24.3 71.9083 24.5C71.9083 26.2 72.6083 27.1 74.0083 27.1C76.1083 27.1 77.4083 27.1 77.4083 26.2C77.4083 26 77.6083 25.8 77.8083 25.8C78.0083 25.8 78.2083 26 78.2083 26.2C78.2083 27.9 76.2083 27.9 74.0083 27.9Z" fill="white"/>
<path d="M81.2083 24.4999C81.1083 24.4999 81.0083 24.4999 80.9083 24.3999C80.5083 23.8999 79.1083 22.5999 79.1083 20.2999C79.1083 17.9999 80.5083 16.5999 80.9083 16.1999C81.1083 15.9999 81.3083 15.9999 81.5083 16.1999C81.7083 16.3999 81.7083 16.5999 81.5083 16.7999C81.1083 17.1999 79.9083 18.3999 79.9083 20.2999C79.9083 22.2999 81.1083 23.4999 81.5083 23.7999C81.7083 23.9999 81.7083 24.1999 81.5083 24.3999C81.4083 24.4999 81.3083 24.4999 81.2083 24.4999Z" fill="white"/>
<path d="M146.308 27.8H137.708C137.508 27.8 137.308 27.6 137.308 27.4C137.308 27.2 137.508 27 137.708 27H146.308C146.508 27 146.708 27.2 146.708 27.4C146.708 27.6 146.608 27.8 146.308 27.8Z" fill="white"/>
<path d="M142.008 27.4001C135.008 27.4001 129.108 21.8001 129.108 15.2001C129.108 15.0001 129.308 14.8 129.508 14.8H154.508C154.708 14.8 154.908 15.0001 154.908 15.2001C155.008 21.8001 149.008 27.4001 142.008 27.4001ZM129.908 15.6001C130.108 21.6001 135.608 26.6001 142.008 26.6001C148.408 26.6001 153.808 21.6001 154.108 15.6001H129.908Z" fill="white"/>
<path d="M139.008 9.49998C138.808 9.49998 138.608 9.29998 138.608 9.09998V7.49998C138.608 7.29998 138.808 7.09998 139.008 7.09998C139.208 7.09998 139.408 7.29998 139.408 7.49998V9.09998C139.408 9.29998 139.208 9.49998 139.008 9.49998Z" fill="white"/>
<path d="M140.708 9.50003C140.508 9.50003 140.308 9.30002 140.308 9.10003V3.80003C140.308 3.60003 140.508 3.40002 140.708 3.40002C140.908 3.40002 141.108 3.60003 141.108 3.80003V9.10003C141.208 9.30002 141.008 9.50003 140.708 9.50003Z" fill="white"/>
<path d="M142.508 9.5C142.308 9.5 142.108 9.3 142.108 9.1V5.9C142.108 5.7 142.308 5.5 142.508 5.5C142.708 5.5 142.908 5.7 142.908 5.9V9.1C142.908 9.3 142.708 9.5 142.508 9.5Z" fill="white"/>
<path d="M140.708 14C138.808 14 137.708 12.8 137.708 10.8C137.708 10.6 137.908 10.4 138.108 10.4H150.608C151.708 10.4 152.308 11 152.308 12C152.308 12.6 151.708 13.6 150.608 13.6C150.508 13.6 150.208 13.6 149.708 13.5C148.608 13.3 146.308 12.9 143.608 12.8C143.208 13.7 141.408 14 140.708 14ZM138.608 11.1C138.708 12.4 139.408 13.1 140.708 13.1C141.608 13.1 142.908 12.7 142.908 12.3C142.908 12.1 143.108 11.9 143.308 11.9C146.308 11.9 148.708 12.4 149.908 12.6C150.208 12.7 150.508 12.7 150.608 12.7C151.208 12.7 151.508 12.1 151.508 11.9C151.508 11.3 151.308 11.1 150.608 11.1H138.608Z" fill="white"/>
<path d="M173.208 27.7001C172.208 27.7001 171.408 26.6001 171.408 25.8001C171.408 25.4001 171.508 25.0001 171.808 24.7001C172.508 23.7001 175.708 20.4001 175.808 20.2001C175.908 20.1001 176.208 20.0001 176.308 20.2001C176.508 20.3001 176.508 20.5001 176.408 20.6001C176.408 20.6001 173.108 24.1001 172.408 25.0001C172.208 25.3001 172.108 25.5001 172.108 25.8001C172.108 26.3001 172.708 27.1001 173.208 27.1001C173.408 27.1001 173.908 26.9001 174.108 26.8001L176.608 25.5001C176.808 25.4001 177.008 25.5001 177.108 25.6001C177.208 25.8001 177.108 25.9001 177.008 26.0001L174.508 27.3001C174.408 27.4001 173.708 27.7001 173.208 27.7001Z" fill="white"/>
<path d="M186.008 27.1001H178.708C177.508 27.1001 176.608 26.4001 176.508 25.9001C176.408 25.6001 176.408 25.4001 176.308 25.1001C176.008 24.0001 175.708 22.8001 175.708 20.4001V20.3C175.708 19.9 175.708 19.0001 177.008 18.5001C178.108 18.1001 180.008 17.8 182.208 17.8C184.408 17.8 186.308 18.1001 187.408 18.5001C188.808 19.0001 188.708 19.9 188.708 20.3V20.4001C188.708 22.7001 188.408 24.0001 188.108 25.1001C188.008 25.4001 188.008 25.6001 187.908 25.9001C188.008 26.4001 187.208 27.1001 186.008 27.1001ZM182.308 18.5001C180.308 18.5001 178.408 18.7001 177.408 19.1001C176.508 19.5001 176.508 20 176.508 20.3V20.4001C176.508 22.7001 176.808 23.9001 177.008 24.9001C177.108 25.2001 177.108 25.4001 177.208 25.7001C177.208 25.9001 177.708 26.4001 178.708 26.4001H186.008C186.908 26.4001 187.408 25.9001 187.508 25.7001C187.608 25.4001 187.608 25.2001 187.708 24.9001C188.008 23.8001 188.208 22.6001 188.208 20.4001V20.3C188.208 20 188.208 19.5001 187.308 19.1001C186.308 18.8001 184.408 18.5001 182.308 18.5001Z" fill="white"/>
<path d="M191.408 27.7C190.908 27.7 190.308 27.4 190.108 27.3L187.508 26C187.308 25.9 187.308 25.7 187.408 25.6C187.508 25.4 187.708 25.4 187.908 25.5L190.408 26.8C190.608 26.9 191.108 27.1 191.308 27.1C191.808 27.1 192.408 26.3 192.408 25.8C192.408 25.6 192.308 25.3 192.108 25C191.408 24.1 188.208 20.6 188.108 20.6C188.008 20.5 188.008 20.3 188.208 20.2C188.408 20.1 188.608 20.1 188.708 20.2C188.808 20.3 192.008 23.7 192.708 24.7C193.008 25.1 193.108 25.5 193.108 25.8C193.208 26.6 192.408 27.7 191.408 27.7Z" fill="white"/>
<path d="M182.308 23.0001C180.608 23.0001 179.008 20.9001 179.008 18.6001C179.008 18.4001 179.208 18.3 179.408 18.3C179.608 18.3 179.808 18.4001 179.808 18.6001C179.808 20.7001 181.208 22.4001 182.308 22.4001C183.508 22.4001 184.808 20.7001 184.808 18.6001C184.808 18.4001 185.008 18.3 185.208 18.3C185.408 18.3 185.608 18.4001 185.608 18.6001C185.608 20.9001 184.008 23.0001 182.308 23.0001Z" fill="white"/>
<path d="M35.1082 27.7C30.9082 27.7 28.0082 24.8 28.0082 23.3V23.2C28.0082 23 28.0082 22.8 28.2082 22.7C28.3082 22.6 28.6082 22.5 28.9082 22.5C29.1082 22.5 29.3082 22.5 29.7082 22.6C30.9082 22.8 33.1082 23.3 34.7082 22.5C35.4082 22.1 36.1082 21.4 36.7082 20.8C37.7082 19.7 38.6082 18.6 40.2082 18.6C41.8082 18.6 42.7082 19.4 42.8082 20.3C44.4082 20.7 44.6082 22.3 44.6082 22.8C44.6082 25.4 40.1082 27.7 35.1082 27.7ZM28.9082 23.1C28.7082 23.1 28.6082 23.1 28.6082 23.1V23.2V23.3C28.6082 24.5 31.1082 27.2 35.1082 27.2C40.2082 27.2 44.0082 24.9 44.0082 22.8C44.0082 22 43.7082 20.7 41.9082 20.7C41.7082 20.7 41.6082 20.6 41.6082 20.4C41.6082 20.2 41.7082 20.1 41.9082 20.1C42.0082 20.1 42.1082 20.1 42.2082 20.1C42.0082 19.6 41.3082 19.1 40.2082 19.1C38.9082 19.1 38.1082 20.1 37.2082 21.1C36.6082 21.8 35.9082 22.6 35.1082 23C33.4082 23.9 31.0082 23.4 29.7082 23.1C29.3082 23.1 29.0082 23.1 28.9082 23.1Z" fill="white"/>
<path d="M43.4081 20.9999C43.3081 20.9999 43.2081 20.9999 43.2081 20.8999C43.1081 20.7999 43.1081 20.5999 43.2081 20.4999C44.6081 19.4999 45.1081 18.2999 45.2081 18.0999C45.2081 17.9999 45.2081 17.8999 45.2081 17.8999C45.1081 17.8999 44.9081 17.8999 44.7081 17.8999H44.3081C44.2081 18.6999 43.5081 19.6999 42.7081 20.1999C42.6081 20.2999 42.4081 20.1999 42.3081 20.0999C42.2081 19.9999 42.2081 19.7999 42.4081 19.6999C43.2081 19.1999 43.7081 18.1999 43.7081 17.5999C43.7081 17.4999 43.8081 17.2999 44.0081 17.2999H44.7081C45.2081 17.2999 45.4081 17.2999 45.6081 17.4999C45.8081 17.5999 45.8081 17.7999 45.8081 18.0999C45.8081 18.4999 45.2081 19.7999 43.6081 20.8999C43.5081 20.9999 43.4081 20.9999 43.4081 20.9999Z" fill="white"/>
<path d="M29.2082 23.1C29.1082 23.1 28.9082 23 28.9082 22.9C28.3082 20.8 30.0081 17.2 30.8081 16.9C30.9081 16.9 31.0082 16.9 31.1082 16.9C31.2082 16.9 31.2082 17 31.2082 17.1C31.2082 17.7 31.8082 18.4 32.5082 18.9C32.3082 17.4 33.5082 15.9 34.0082 15.2C34.8082 14.2 36.0081 13.2 36.8081 13.2C36.9081 13.2 37.0082 13.1999 37.0082 13.2999C37.1082 13.3999 37.1082 13.4 37.1082 13.5C36.8082 14.4 37.3081 16.4 38.3081 17C39.2081 16.3 39.5082 15.3 39.5082 14.5C39.5082 14.4 39.6081 14.2 39.8081 14.2C40.4081 14.2 41.1082 14.9 41.6082 15.6C42.0082 16.1 43.1082 17.9 42.1082 19.5C42.0082 19.6 41.8082 19.7 41.7082 19.6C41.6082 19.5 41.5082 19.3999 41.6082 19.2999C42.4082 17.8999 41.4082 16.3 41.1082 15.9C40.7082 15.4 40.4082 15 40.1082 14.9C40.0082 15.6 39.7082 16.8 38.5082 17.6C38.4082 17.7 38.3082 17.7 38.2082 17.6C37.1082 17.1 36.4082 15.0999 36.5082 13.7999C36.0082 13.9999 35.3082 14.6 34.6082 15.5C33.4082 16.9 32.9081 18.3999 33.3081 19.2999C33.3081 19.3999 33.3082 19.5 33.2082 19.6C33.1082 19.7 33.0082 19.7 32.9082 19.6C31.9082 19.2 31.1081 18.4 30.8081 17.6C30.1081 18.5 29.0082 21 29.5082 22.7C29.5082 22.9 29.4082 23 29.2082 23.1C29.3082 23.1 29.2082 23.1 29.2082 23.1Z" fill="white"/>
</svg>
