<svg width="214" height="112" viewBox="0 0 214 112" fill="none" xmlns="http://www.w3.org/2000/svg">
<path d="M13.205 44.65H18.98V56.27H23.985V44.65H29.76V73H23.985V60.435H18.98V73H13.205V44.65ZM42.0321 73.385C39.0221 73.385 36.8755 72.6033 35.5921 71.04C34.3088 69.4533 33.6671 67.1317 33.6671 64.075V53.505C33.6671 50.4483 34.3088 48.15 35.5921 46.61C36.8755 45.07 39.0221 44.3 42.0321 44.3C45.0188 44.3 47.1538 45.0817 48.4371 46.645C49.7438 48.185 50.3971 50.4717 50.3971 53.505V64.11C50.3971 67.1433 49.7438 69.4533 48.4371 71.04C47.1538 72.6033 45.0188 73.385 42.0321 73.385ZM42.0321 69.255C43.0121 69.255 43.6655 68.9283 43.9921 68.275C44.3421 67.5983 44.5171 66.6767 44.5171 65.51V52.105C44.5171 50.9383 44.3421 50.04 43.9921 49.41C43.6655 48.7567 43.0121 48.43 42.0321 48.43C41.0521 48.43 40.3871 48.7567 40.0371 49.41C39.7105 50.04 39.5471 50.9383 39.5471 52.105V65.51C39.5471 66.7 39.7105 67.6217 40.0371 68.275C40.3638 68.9283 41.0288 69.255 42.0321 69.255ZM54.6382 44.65H60.7632L64.2632 62.535L67.9732 44.65H73.8882L74.4132 73H70.2132L69.7582 53.75L66.1182 73H62.5482L58.8032 53.645L58.3832 73H54.1482L54.6382 44.65ZM78.5891 44.65H90.9441V48.64H84.3291V56.165H89.4391V60.19H84.3291V69.08H91.0141V73H78.5891V44.65ZM101.845 73.385C98.835 73.385 96.7 72.58 95.44 70.97C94.18 69.3367 93.55 66.9917 93.55 63.935V53.785C93.55 50.6583 94.1683 48.3017 95.405 46.715C96.665 45.105 98.8116 44.3 101.845 44.3C104.738 44.3 106.78 45.0117 107.97 46.435C109.183 47.835 109.79 49.8533 109.79 52.49V54.87H104.19V52.245C104.19 51.405 104.143 50.7283 104.05 50.215C103.98 49.7017 103.77 49.2817 103.42 48.955C103.093 48.605 102.58 48.43 101.88 48.43C100.83 48.43 100.153 48.7683 99.85 49.445C99.5466 50.1217 99.395 51.1133 99.395 52.42V65.3C99.395 66.63 99.57 67.6217 99.92 68.275C100.27 68.9283 100.923 69.255 101.88 69.255C102.86 69.255 103.49 68.9283 103.77 68.275C104.05 67.5983 104.19 66.6067 104.19 65.3V62.535H109.79V64.88C109.79 67.5867 109.195 69.6867 108.005 71.18C106.815 72.65 104.762 73.385 101.845 73.385ZM121.261 73.385C118.251 73.385 116.104 72.6033 114.821 71.04C113.537 69.4533 112.896 67.1317 112.896 64.075V53.505C112.896 50.4483 113.537 48.15 114.821 46.61C116.104 45.07 118.251 44.3 121.261 44.3C124.247 44.3 126.382 45.0817 127.666 46.645C128.972 48.185 129.626 50.4717 129.626 53.505V64.11C129.626 67.1433 128.972 69.4533 127.666 71.04C126.382 72.6033 124.247 73.385 121.261 73.385ZM121.261 69.255C122.241 69.255 122.894 68.9283 123.221 68.275C123.571 67.5983 123.746 66.6767 123.746 65.51V52.105C123.746 50.9383 123.571 50.04 123.221 49.41C122.894 48.7567 122.241 48.43 121.261 48.43C120.281 48.43 119.616 48.7567 119.266 49.41C118.939 50.04 118.776 50.9383 118.776 52.105V65.51C118.776 66.7 118.939 67.6217 119.266 68.275C119.592 68.9283 120.257 69.255 121.261 69.255ZM141.427 73.385C138.417 73.385 136.27 72.6033 134.987 71.04C133.703 69.4533 133.062 67.1317 133.062 64.075V53.505C133.062 50.4483 133.703 48.15 134.987 46.61C136.27 45.07 138.417 44.3 141.427 44.3C144.413 44.3 146.548 45.0817 147.832 46.645C149.138 48.185 149.792 50.4717 149.792 53.505V64.11C149.792 67.1433 149.138 69.4533 147.832 71.04C146.548 72.6033 144.413 73.385 141.427 73.385ZM141.427 69.255C142.407 69.255 143.06 68.9283 143.387 68.275C143.737 67.5983 143.912 66.6767 143.912 65.51V52.105C143.912 50.9383 143.737 50.04 143.387 49.41C143.06 48.7567 142.407 48.43 141.427 48.43C140.447 48.43 139.782 48.7567 139.432 49.41C139.105 50.04 138.942 50.9383 138.942 52.105V65.51C138.942 66.7 139.105 67.6217 139.432 68.275C139.758 68.9283 140.423 69.255 141.427 69.255ZM153.648 44.65H159.388V56.62L164.533 44.65H170.133L164.813 57.39L170.553 73H164.708L160.333 60.33L159.388 61.87V73H153.648V44.65ZM172.959 44.65H185.314V48.64H178.699V56.165H183.809V60.19H178.699V69.08H185.384V73H172.959V44.65ZM188.34 44.65H195.27C197.65 44.65 199.505 44.965 200.835 45.595C202.188 46.2017 203.145 47.1467 203.705 48.43C204.288 49.7133 204.58 51.4167 204.58 53.54V63.865C204.58 66.035 204.3 67.785 203.74 69.115C203.18 70.4217 202.235 71.4017 200.905 72.055C199.575 72.685 197.743 73 195.41 73H188.34V44.65ZM195.34 68.975C196.343 68.975 197.078 68.8233 197.545 68.52C198.035 68.1933 198.338 67.7267 198.455 67.12C198.595 66.5133 198.665 65.6383 198.665 64.495V52.77C198.665 51.6967 198.583 50.8917 198.42 50.355C198.28 49.795 197.977 49.3867 197.51 49.13C197.043 48.85 196.308 48.71 195.305 48.71H194.08V68.975H195.34Z" fill="white"/>
<path d="M93.3238 89V79.28H95.0998V87.776H97.4518V89H93.3238ZM98.1826 89L100.127 79.28H102.023L103.967 89H102.323L101.939 86.756H100.247L99.8506 89H98.1826ZM100.427 85.628H101.747L101.087 81.548L100.427 85.628ZM108.127 85.268V83.696H109.699V85.268H108.127ZM116.999 89.132C116.311 89.132 115.763 89.004 115.355 88.748C114.947 88.492 114.655 88.124 114.479 87.644C114.303 87.164 114.215 86.596 114.215 85.94V82.304C114.215 81.648 114.303 81.088 114.479 80.624C114.655 80.152 114.947 79.792 115.355 79.544C115.763 79.296 116.311 79.172 116.999 79.172C117.703 79.172 118.255 79.296 118.655 79.544C119.063 79.792 119.355 80.152 119.531 80.624C119.715 81.088 119.807 81.648 119.807 82.304V85.952C119.807 86.6 119.715 87.164 119.531 87.644C119.355 88.116 119.063 88.484 118.655 88.748C118.255 89.004 117.703 89.132 116.999 89.132ZM116.999 87.824C117.295 87.824 117.511 87.76 117.647 87.632C117.791 87.504 117.887 87.328 117.935 87.104C117.983 86.88 118.007 86.636 118.007 86.372V81.896C118.007 81.624 117.983 81.38 117.935 81.164C117.887 80.948 117.791 80.78 117.647 80.66C117.511 80.532 117.295 80.468 116.999 80.468C116.719 80.468 116.507 80.532 116.363 80.66C116.219 80.78 116.123 80.948 116.075 81.164C116.027 81.38 116.003 81.624 116.003 81.896V86.372C116.003 86.636 116.023 86.88 116.063 87.104C116.111 87.328 116.207 87.504 116.351 87.632C116.495 87.76 116.711 87.824 116.999 87.824ZM124.037 89.132C123.325 89.132 122.765 88.992 122.357 88.712C121.957 88.432 121.677 88.052 121.517 87.572C121.357 87.084 121.277 86.524 121.277 85.892V82.424C121.277 81.76 121.357 81.184 121.517 80.696C121.677 80.208 121.957 79.832 122.357 79.568C122.765 79.304 123.325 79.172 124.037 79.172C124.709 79.172 125.233 79.288 125.609 79.52C125.993 79.744 126.265 80.068 126.425 80.492C126.585 80.916 126.665 81.408 126.665 81.968V82.784H124.961V81.944C124.961 81.672 124.945 81.424 124.913 81.2C124.889 80.976 124.813 80.8 124.685 80.672C124.565 80.536 124.353 80.468 124.049 80.468C123.745 80.468 123.521 80.54 123.377 80.684C123.241 80.82 123.153 81.008 123.113 81.248C123.073 81.48 123.053 81.744 123.053 82.04V86.264C123.053 86.616 123.081 86.908 123.137 87.14C123.193 87.364 123.293 87.536 123.437 87.656C123.589 87.768 123.793 87.824 124.049 87.824C124.345 87.824 124.553 87.756 124.673 87.62C124.801 87.476 124.881 87.288 124.913 87.056C124.945 86.824 124.961 86.564 124.961 86.276V85.4H126.665V86.18C126.665 86.756 126.589 87.268 126.437 87.716C126.285 88.156 126.017 88.504 125.633 88.76C125.257 89.008 124.725 89.132 124.037 89.132Z" fill="white"/>
<path d="M2.4082 36.4H212.408" stroke="white" stroke-miterlimit="10" stroke-linecap="round" stroke-linejoin="round"/>
<path d="M8 82.4H60" stroke="white" stroke-miterlimit="10" stroke-linecap="round" stroke-linejoin="round"/>
<path d="M154 82.4H206" stroke="white" stroke-miterlimit="10" stroke-linecap="round" stroke-linejoin="round"/>
<path d="M154 84.4H190" stroke="white" stroke-miterlimit="10" stroke-linecap="round" stroke-linejoin="round"/>
<path d="M24 84.4H60" stroke="white" stroke-miterlimit="10" stroke-linecap="round" stroke-linejoin="round"/>
<path d="M109.008 34H105.808C105.708 34 105.608 34 105.508 33.9C105.408 33.8 105.408 33.7 105.408 33.6L106.208 7.4C106.208 7.2 106.408 7 106.608 7H108.208C108.408 7 108.608 7.2 108.608 7.4L109.408 33.5V33.6C109.408 33.8 109.308 34 109.008 34ZM106.208 33.1H108.608L107.808 7.8H107.008L106.208 33.1Z" fill="white"/>
<path d="M108.608 31.3H106.208C106.008 31.3 105.808 31.1 105.808 30.8C105.808 30.5 106.008 30.3 106.208 30.3H108.608C108.808 30.3 109.008 30.5 109.008 30.8C109.008 31.1 108.808 31.3 108.608 31.3Z" fill="white"/>
<path d="M108.608 29.5H106.208C106.008 29.5 105.808 29.3 105.808 29C105.808 28.7 106.008 28.5 106.208 28.5H108.608C108.808 28.5 109.008 28.7 109.008 29C109.008 29.3 108.808 29.5 108.608 29.5Z" fill="white"/>
<path d="M113.008 34H111.408C111.208 34 111.008 33.8 111.008 33.6L110.208 7.4C110.208 7.3 110.208 7.2 110.308 7.1C110.408 7 110.508 7 110.608 7H113.808C113.908 7 114.008 7 114.108 7.1C114.208 7.2 114.208 7.3 114.208 7.4L113.408 33.6C113.408 33.8 113.208 34 113.008 34ZM111.808 33.1H112.608L113.408 7.8H111.008L111.808 33.1Z" fill="white"/>
<path d="M113.408 10.5H111.008C110.808 10.5 110.608 10.3 110.608 10C110.608 9.7 110.808 9.5 111.008 9.5H113.408C113.608 9.5 113.808 9.7 113.808 10C113.808 10.3 113.708 10.5 113.408 10.5Z" fill="white"/>
<path d="M113.408 12.3H111.008C110.808 12.3 110.608 12.1 110.608 11.8C110.608 11.5 110.808 11.3 111.008 11.3H113.408C113.608 11.3 113.808 11.5 113.808 11.8C113.808 12.1 113.708 12.3 113.408 12.3Z" fill="white"/>
<path d="M79.5082 33.6999C73.5082 33.6999 67.9082 30.3999 66.6082 29.4999C66.1082 29.9999 65.2082 30.7999 64.6082 31.0999C64.3082 31.1999 64.0082 31.2999 63.8082 31.2999C63.1082 31.2999 62.8082 30.7999 62.8082 30.2999V25.1999C62.8082 24.6999 63.2082 24.1999 63.8082 24.1999C64.1082 24.1999 64.3082 24.2999 64.6082 24.3999C65.1082 24.6999 66.0082 25.4999 66.6082 25.8999C66.7082 25.8999 66.7082 25.7999 66.8082 25.6999C68.8082 24.2999 74.1082 20.3999 79.5082 20.3999C83.4082 20.3999 87.0082 23.4999 87.9082 27.5999C87.9082 27.6999 87.9082 27.6999 87.9082 27.7999C87.1082 31.3999 83.9082 33.6999 79.5082 33.6999ZM66.5082 28.4999C66.6082 28.4999 66.7082 28.4999 66.7082 28.5999C68.4082 29.7999 74.1082 32.7999 79.5082 32.7999C83.5082 32.7999 86.3082 30.8999 87.0082 27.6999C86.2082 23.9999 82.9082 21.2999 79.5082 21.2999C74.3082 21.2999 69.2082 24.9999 67.3082 26.3999C67.1082 26.5999 66.9082 26.6999 66.8082 26.7999C66.6082 26.8999 66.4082 26.8999 66.3082 26.6999C65.9082 26.2999 64.8082 25.2999 64.3082 25.0999C64.1082 24.9999 63.9082 24.9999 63.9082 24.9999C63.7082 24.9999 63.7082 25.0999 63.7082 25.1999V30.2999C63.7082 30.3999 63.7082 30.4999 63.9082 30.4999C64.0082 30.4999 64.1082 30.4999 64.3082 30.3999C64.8082 30.1999 65.9082 29.1999 66.3082 28.7999C66.3082 28.5999 66.4082 28.4999 66.5082 28.4999Z" fill="white"/>
<path d="M83.7082 27.2C83.5082 27.2 83.3082 27.1 83.1082 26.9C82.9082 26.7 82.9082 26.5 82.9082 26.3C82.9082 26.1 83.0082 25.9 83.1082 25.7C83.4082 25.4 84.0082 25.4 84.3082 25.7C84.5082 25.9 84.5082 26.1 84.5082 26.3C84.5082 26.5 84.4082 26.7 84.3082 26.9C84.1082 27.1 83.9082 27.2 83.7082 27.2Z" fill="white"/>
<path d="M71.5083 23.4C71.3083 23.4 71.1083 23.2 71.1083 23C71.1083 21 73.1083 19.2 75.3083 19.2C78.1083 19.2 80.8083 19.2 80.8083 20.9C80.8083 21.1 80.6083 21.2999 80.4083 21.2999C80.2083 21.2999 80.0083 21.1 80.0083 20.9C80.0083 20 77.3083 20 75.4083 20C73.5083 20 72.0083 21.6 72.0083 23C71.9083 23.2 71.8083 23.4 71.5083 23.4Z" fill="white"/>
<path d="M74.0083 34.9C72.1083 34.9 71.1083 33.7 71.1083 31.5C71.1083 31.3 71.3083 31.1 71.5083 31.1C71.7083 31.1 71.9083 31.3 71.9083 31.5C71.9083 33.2 72.6083 34.1 74.0083 34.1C76.1083 34.1 77.4083 34.1 77.4083 33.2C77.4083 33 77.6083 32.8 77.8083 32.8C78.0083 32.8 78.2083 33 78.2083 33.2C78.2083 34.9 76.2083 34.9 74.0083 34.9Z" fill="white"/>
<path d="M81.2083 31.4999C81.1083 31.4999 81.0083 31.4999 80.9083 31.3999C80.5083 30.8999 79.1083 29.5999 79.1083 27.2999C79.1083 24.9999 80.5083 23.5999 80.9083 23.1999C81.1083 22.9999 81.3083 22.9999 81.5083 23.1999C81.7083 23.3999 81.7083 23.5999 81.5083 23.7999C81.1083 24.1999 79.9083 25.3999 79.9083 27.2999C79.9083 29.2999 81.1083 30.4999 81.5083 30.7999C81.7083 30.9999 81.7083 31.1999 81.5083 31.3999C81.4083 31.4999 81.3083 31.4999 81.2083 31.4999Z" fill="white"/>
<path d="M146.308 34.8H137.708C137.508 34.8 137.308 34.6 137.308 34.4C137.308 34.2 137.508 34 137.708 34H146.308C146.508 34 146.708 34.2 146.708 34.4C146.708 34.6 146.608 34.8 146.308 34.8Z" fill="white"/>
<path d="M142.008 34.4001C135.008 34.4001 129.108 28.8001 129.108 22.2001C129.108 22.0001 129.308 21.8 129.508 21.8H154.508C154.708 21.8 154.908 22.0001 154.908 22.2001C155.008 28.8001 149.008 34.4001 142.008 34.4001ZM129.908 22.6001C130.108 28.6001 135.608 33.6001 142.008 33.6001C148.408 33.6001 153.808 28.6001 154.108 22.6001H129.908Z" fill="white"/>
<path d="M139.008 16.5C138.808 16.5 138.608 16.3 138.608 16.1V14.5C138.608 14.3 138.808 14.1 139.008 14.1C139.208 14.1 139.408 14.3 139.408 14.5V16.1C139.408 16.3 139.208 16.5 139.008 16.5Z" fill="white"/>
<path d="M140.708 16.5C140.508 16.5 140.308 16.3 140.308 16.1V10.8C140.308 10.6 140.508 10.4 140.708 10.4C140.908 10.4 141.108 10.6 141.108 10.8V16.1C141.208 16.3 141.008 16.5 140.708 16.5Z" fill="white"/>
<path d="M142.508 16.5C142.308 16.5 142.108 16.3 142.108 16.1V12.9C142.108 12.7 142.308 12.5 142.508 12.5C142.708 12.5 142.908 12.7 142.908 12.9V16.1C142.908 16.3 142.708 16.5 142.508 16.5Z" fill="white"/>
<path d="M140.708 21C138.808 21 137.708 19.8 137.708 17.8C137.708 17.6 137.908 17.4 138.108 17.4H150.608C151.708 17.4 152.308 18 152.308 19C152.308 19.6 151.708 20.6 150.608 20.6C150.508 20.6 150.208 20.6 149.708 20.5C148.608 20.3 146.308 19.9 143.608 19.8C143.208 20.7 141.408 21 140.708 21ZM138.608 18.1C138.708 19.4 139.408 20.1 140.708 20.1C141.608 20.1 142.908 19.7 142.908 19.3C142.908 19.1 143.108 18.9 143.308 18.9C146.308 18.9 148.708 19.4 149.908 19.6C150.208 19.7 150.508 19.7 150.608 19.7C151.208 19.7 151.508 19.1 151.508 18.9C151.508 18.3 151.308 18.1 150.608 18.1H138.608Z" fill="white"/>
<path d="M173.208 34.7001C172.208 34.7001 171.408 33.6001 171.408 32.8001C171.408 32.4001 171.508 32.0001 171.808 31.7001C172.508 30.7001 175.708 27.4001 175.808 27.2001C175.908 27.1001 176.208 27.0001 176.308 27.2001C176.508 27.3001 176.508 27.5001 176.408 27.6001C176.408 27.6001 173.108 31.1001 172.408 32.0001C172.208 32.3001 172.108 32.5001 172.108 32.8001C172.108 33.3001 172.708 34.1001 173.208 34.1001C173.408 34.1001 173.908 33.9001 174.108 33.8001L176.608 32.5001C176.808 32.4001 177.008 32.5001 177.108 32.6001C177.208 32.8001 177.108 32.9001 177.008 33.0001L174.508 34.3001C174.408 34.4001 173.708 34.7001 173.208 34.7001Z" fill="white"/>
<path d="M186.008 34.1001H178.708C177.508 34.1001 176.608 33.4001 176.508 32.9001C176.408 32.6001 176.408 32.4001 176.308 32.1001C176.008 31.0001 175.708 29.8001 175.708 27.4001V27.3C175.708 26.9 175.708 26.0001 177.008 25.5001C178.108 25.1001 180.008 24.8 182.208 24.8C184.408 24.8 186.308 25.1001 187.408 25.5001C188.808 26.0001 188.708 26.9 188.708 27.3V27.4001C188.708 29.7001 188.408 31.0001 188.108 32.1001C188.008 32.4001 188.008 32.6001 187.908 32.9001C188.008 33.4001 187.208 34.1001 186.008 34.1001ZM182.308 25.5001C180.308 25.5001 178.408 25.7001 177.408 26.1001C176.508 26.5001 176.508 27 176.508 27.3V27.4001C176.508 29.7001 176.808 30.9001 177.008 31.9001C177.108 32.2001 177.108 32.4001 177.208 32.7001C177.208 32.9001 177.708 33.4001 178.708 33.4001H186.008C186.908 33.4001 187.408 32.9001 187.508 32.7001C187.608 32.4001 187.608 32.2001 187.708 31.9001C188.008 30.8001 188.208 29.6001 188.208 27.4001V27.3C188.208 27 188.208 26.5001 187.308 26.1001C186.308 25.8001 184.408 25.5001 182.308 25.5001Z" fill="white"/>
<path d="M191.408 34.7C190.908 34.7 190.308 34.4 190.108 34.3L187.508 33C187.308 32.9 187.308 32.7 187.408 32.6C187.508 32.4 187.708 32.4 187.908 32.5L190.408 33.8C190.608 33.9 191.108 34.1 191.308 34.1C191.808 34.1 192.408 33.3 192.408 32.8C192.408 32.6 192.308 32.3 192.108 32C191.408 31.1 188.208 27.6 188.108 27.6C188.008 27.5 188.008 27.3 188.208 27.2C188.408 27.1 188.608 27.1 188.708 27.2C188.808 27.3 192.008 30.7 192.708 31.7C193.008 32.1 193.108 32.5 193.108 32.8C193.208 33.6 192.408 34.7 191.408 34.7Z" fill="white"/>
<path d="M182.308 30.0001C180.608 30.0001 179.008 27.9001 179.008 25.6001C179.008 25.4001 179.208 25.3 179.408 25.3C179.608 25.3 179.808 25.4001 179.808 25.6001C179.808 27.7001 181.208 29.4001 182.308 29.4001C183.508 29.4001 184.808 27.7001 184.808 25.6001C184.808 25.4001 185.008 25.3 185.208 25.3C185.408 25.3 185.608 25.4001 185.608 25.6001C185.608 27.9001 184.008 30.0001 182.308 30.0001Z" fill="white"/>
<path d="M35.1082 34.7C30.9082 34.7 28.0082 31.8 28.0082 30.3V30.2C28.0082 30 28.0082 29.8 28.2082 29.7C28.3082 29.6 28.6082 29.5 28.9082 29.5C29.1082 29.5 29.3082 29.5 29.7082 29.6C30.9082 29.8 33.1082 30.3 34.7082 29.5C35.4082 29.1 36.1082 28.4 36.7082 27.8C37.7082 26.7 38.6082 25.6 40.2082 25.6C41.8082 25.6 42.7082 26.4 42.8082 27.3C44.4082 27.7 44.6082 29.3 44.6082 29.8C44.6082 32.4 40.1082 34.7 35.1082 34.7ZM28.9082 30.1C28.7082 30.1 28.6082 30.1 28.6082 30.1V30.2V30.3C28.6082 31.5 31.1082 34.2 35.1082 34.2C40.2082 34.2 44.0082 31.9 44.0082 29.8C44.0082 29 43.7082 27.7 41.9082 27.7C41.7082 27.7 41.6082 27.6 41.6082 27.4C41.6082 27.2 41.7082 27.1 41.9082 27.1C42.0082 27.1 42.1082 27.1 42.2082 27.1C42.0082 26.6 41.3082 26.1 40.2082 26.1C38.9082 26.1 38.1082 27.1 37.2082 28.1C36.6082 28.8 35.9082 29.6 35.1082 30C33.4082 30.9 31.0082 30.4 29.7082 30.1C29.3082 30.1 29.0082 30.1 28.9082 30.1Z" fill="white"/>
<path d="M43.4081 27.9999C43.3081 27.9999 43.2081 27.9999 43.2081 27.8999C43.1081 27.7999 43.1081 27.5999 43.2081 27.4999C44.6081 26.4999 45.1081 25.2999 45.2081 25.0999C45.2081 24.9999 45.2081 24.8999 45.2081 24.8999C45.1081 24.8999 44.9081 24.8999 44.7081 24.8999H44.3081C44.2081 25.6999 43.5081 26.6999 42.7081 27.1999C42.6081 27.2999 42.4081 27.1999 42.3081 27.0999C42.2081 26.9999 42.2081 26.7999 42.4081 26.6999C43.2081 26.1999 43.7081 25.1999 43.7081 24.5999C43.7081 24.4999 43.8081 24.2999 44.0081 24.2999H44.7081C45.2081 24.2999 45.4081 24.2999 45.6081 24.4999C45.8081 24.5999 45.8081 24.7999 45.8081 25.0999C45.8081 25.4999 45.2081 26.7999 43.6081 27.8999C43.5081 27.9999 43.4081 27.9999 43.4081 27.9999Z" fill="white"/>
<path d="M29.2082 30.1C29.1082 30.1 28.9082 30 28.9082 29.9C28.3082 27.8 30.0081 24.2 30.8081 23.9C30.9081 23.9 31.0082 23.9 31.1082 23.9C31.2082 23.9 31.2082 24 31.2082 24.1C31.2082 24.7 31.8082 25.4 32.5082 25.9C32.3082 24.4 33.5082 22.9 34.0082 22.2C34.8082 21.2 36.0081 20.2 36.8081 20.2C36.9081 20.2 37.0082 20.1999 37.0082 20.2999C37.1082 20.3999 37.1082 20.4 37.1082 20.5C36.8082 21.4 37.3081 23.4 38.3081 24C39.2081 23.3 39.5082 22.3 39.5082 21.5C39.5082 21.4 39.6081 21.2 39.8081 21.2C40.4081 21.2 41.1082 21.9 41.6082 22.6C42.0082 23.1 43.1082 24.9 42.1082 26.5C42.0082 26.6 41.8082 26.7 41.7082 26.6C41.6082 26.5 41.5082 26.3999 41.6082 26.2999C42.4082 24.8999 41.4082 23.3 41.1082 22.9C40.7082 22.4 40.4082 22 40.1082 21.9C40.0082 22.6 39.7082 23.8 38.5082 24.6C38.4082 24.7 38.3082 24.7 38.2082 24.6C37.1082 24.1 36.4082 22.0999 36.5082 20.7999C36.0082 20.9999 35.3082 21.6 34.6082 22.5C33.4082 23.9 32.9081 25.3999 33.3081 26.2999C33.3081 26.3999 33.3082 26.5 33.2082 26.6C33.1082 26.7 33.0082 26.7 32.9082 26.6C31.9082 26.2 31.1081 25.4 30.8081 24.6C30.1081 25.5 29.0082 28 29.5082 29.7C29.5082 29.9 29.4082 30 29.2082 30.1C29.2082 30.1 29.3082 30.1 29.2082 30.1Z" fill="white"/>
</svg>
