<?xml version="1.0" standalone="no"?>
<!DOCTYPE svg PUBLIC "-//W3C//DTD SVG 20010904//EN"
 "http://www.w3.org/TR/2001/REC-SVG-20010904/DTD/svg10.dtd">
<svg version="1.0" xmlns="http://www.w3.org/2000/svg"
 width="1280.000000pt" height="1060.000000pt" viewBox="0 0 1280.000000 1060.000000"
 preserveAspectRatio="xMidYMid meet">
<metadata>
Created by potrace 1.15, written by Peter Selinger 2001-2017
</metadata>
<g transform="translate(0.000000,1060.000000) scale(0.100000,-0.100000)"
fill="#000000" stroke="none">
<path d="M6431 10294 c0 -11 3 -14 6 -6 3 7 2 16 -1 19 -3 4 -6 -2 -5 -13z"/>
<path d="M6143 8800 c0 -25 2 -35 4 -22 2 12 2 32 0 45 -2 12 -4 2 -4 -23z"/>
<path d="M5020 8420 c-788 -47 -1251 -108 -1782 -234 -478 -113 -1004 -314
-1312 -499 -56 -34 -61 -35 -87 -21 -68 34 -290 118 -402 150 -254 73 -472
107 -937 148 -202 17 -293 21 -344 15 -151 -19 -193 -94 -116 -210 48 -73 125
-156 325 -350 l190 -184 150 -76 c83 -42 205 -100 272 -129 l122 -52 -23 -32
c-45 -58 -112 -180 -146 -263 -18 -45 -37 -80 -42 -77 -11 7 -10 -3 1 -25 12
-21 28 -95 367 -1681 162 -757 236 -1105 260 -1228 10 -55 28 -98 74 -177 36
-63 57 -110 54 -120 -4 -8 -1 -59 6 -113 93 -736 960 -1440 2230 -1808 516
-150 1035 -237 1667 -279 271 -19 1059 -21 1361 -5 1066 58 2079 308 2879 709
588 294 1041 679 1222 1039 17 34 46 104 63 155 30 87 32 100 33 237 l0 145
-37 77 c-20 42 -55 97 -78 122 l-42 45 41 150 c174 648 338 1610 446 2621 8
80 17 162 20 183 4 25 2 36 -5 32 -6 -4 -10 13 -10 45 0 147 -88 329 -235 488
-425 459 -1369 809 -2710 1007 -386 56 -1123 136 -1400 151 -38 2 -153 8 -255
14 -544 31 -1526 47 -1820 30z m1081 -245 c42 -337 111 -523 264 -714 95 -119
124 -178 131 -267 6 -75 0 -111 -60 -339 -20 -77 -42 -174 -49 -215 l-12 -75
-105 -2 c-864 -18 -1657 -117 -2367 -298 -119 -30 -217 -55 -220 -55 -2 0 -1
-5 2 -10 4 -6 12 -7 18 -4 7 4 9 4 5 -1 -5 -5 56 -74 135 -154 331 -340 511
-575 493 -646 -8 -32 -46 -42 -103 -27 -50 14 -139 70 -423 267 -113 78 -296
203 -408 278 l-203 136 -122 -50 c-178 -73 -434 -199 -579 -286 -104 -62 -322
-214 -362 -254 -13 -12 379 -202 584 -282 295 -116 598 -212 955 -301 223 -55
295 -69 515 -101 1117 -159 2262 -177 3425 -55 164 18 333 52 647 130 506 127
1011 308 1458 523 213 102 570 301 570 318 0 16 -276 162 -477 253 -494 222
-1247 419 -1963 516 -85 11 -188 25 -228 30 -124 17 -147 14 -176 -21 -31 -36
-35 -29 -5 9 106 136 198 301 245 442 24 71 29 101 29 185 0 94 -2 103 -33
160 -18 33 -94 130 -168 215 -146 168 -210 261 -255 371 -37 92 -69 247 -69
339 l0 72 58 -6 c31 -3 140 -13 242 -21 619 -51 1278 -147 1787 -261 1190
-265 1909 -690 2009 -1187 16 -78 16 -79 -10 -151 -104 -285 -524 -689 -1026
-988 -540 -322 -1079 -552 -1727 -739 -706 -203 -1362 -308 -2193 -350 -344
-18 -743 2 -1275 62 -1490 168 -2705 577 -3445 1158 -113 88 -311 285 -376
373 -84 114 -184 347 -184 427 0 53 88 237 158 329 l17 22 85 -34 c47 -19 222
-84 390 -146 740 -271 859 -320 1079 -439 247 -135 528 -316 1086 -701 278
-192 339 -228 397 -236 40 -6 47 -4 58 15 50 94 -350 544 -1086 1221 -463 426
-887 768 -1133 915 -56 33 -101 63 -101 66 0 8 209 119 319 168 573 258 1262
425 2081 506 213 21 577 45 680 45 l85 0 3 -67 c7 -176 61 -386 129 -503 24
-41 78 -104 145 -171 61 -60 114 -121 123 -142 25 -60 19 -131 -21 -242 -20
-55 -44 -127 -54 -160 -19 -61 -45 -224 -37 -231 3 -3 27 23 54 58 155 195
255 425 257 588 1 80 -2 91 -36 160 -26 52 -72 113 -149 200 -61 69 -132 152
-157 185 -49 66 -124 212 -146 288 l-14 48 411 -3 411 -3 17 -140z m689 109
c162 -8 300 -17 306 -19 7 -2 13 -69 17 -192 7 -211 19 -322 47 -436 45 -181
98 -272 246 -421 158 -159 161 -173 80 -406 -29 -86 -59 -188 -66 -228 l-13
-72 -36 5 c-117 15 -646 45 -803 45 -54 0 -98 4 -98 9 0 4 20 51 44 102 115
244 188 556 166 711 -18 128 -46 187 -205 433 -114 176 -191 320 -234 439
l-22 58 138 -6 c76 -4 271 -14 433 -22z m-426 -1783 c-4 -23 -9 -40 -11 -37
-3 3 -2 23 2 46 4 23 9 39 11 37 3 -2 2 -23 -2 -46z m77 -7 c-30 -49 -31 -64
-6 -64 20 0 83 -57 101 -91 27 -54 13 -108 -43 -161 -31 -30 -100 -58 -143
-58 -94 0 -200 88 -200 165 0 77 109 167 199 164 16 0 6 -5 -26 -13 -174 -43
-215 -191 -75 -273 88 -52 212 -26 267 54 14 21 25 52 25 69 0 45 -49 107
-102 130 l-45 18 36 57 c20 32 37 56 39 54 2 -1 -10 -25 -27 -51z m-503 39
c-16 -2 -40 -2 -55 0 -16 2 -3 4 27 4 30 0 43 -2 28 -4z m940 0 c-16 -2 -40
-2 -55 0 -16 2 -3 4 27 4 30 0 43 -2 28 -4z m-1095 -10 c-13 -2 -33 -2 -45 0
-13 2 -3 4 22 4 25 0 35 -2 23 -4z m1240 0 c-13 -2 -33 -2 -45 0 -13 2 -3 4
22 4 25 0 35 -2 23 -4z m-1435 -10 c-10 -2 -26 -2 -35 0 -10 3 -2 5 17 5 19 0
27 -2 18 -5z m1620 0 c-10 -2 -26 -2 -35 0 -10 3 -2 5 17 5 19 0 27 -2 18 -5z
m-1725 -10 c-7 -2 -21 -2 -30 0 -10 3 -4 5 12 5 17 0 24 -2 18 -5z m1830 0
c-7 -2 -21 -2 -30 0 -10 3 -4 5 12 5 17 0 24 -2 18 -5z m-1960 -10 c-7 -2 -21
-2 -30 0 -10 3 -4 5 12 5 17 0 24 -2 18 -5z m2049 -27 c2 -19 0 -32 -4 -30 -8
5 -12 64 -4 64 2 0 6 -15 8 -34z m-2129 17 c-7 -2 -21 -2 -30 0 -10 3 -4 5 12
5 17 0 24 -2 18 -5z m2250 0 c-7 -2 -21 -2 -30 0 -10 3 -4 5 12 5 17 0 24 -2
18 -5z m-2366 -9 c-3 -3 -12 -4 -19 -1 -8 3 -5 6 6 6 11 1 17 -2 13 -5z m2470
0 c-3 -3 -12 -4 -19 -1 -8 3 -5 6 6 6 11 1 17 -2 13 -5z m-2534 -11 c-7 -2
-19 -2 -25 0 -7 3 -2 5 12 5 14 0 19 -2 13 -5z m2600 0 c-7 -2 -19 -2 -25 0
-7 3 -2 5 12 5 14 0 19 -2 13 -5z m-2696 -9 c-3 -3 -12 -4 -19 -1 -8 3 -5 6 6
6 11 1 17 -2 13 -5z m2790 0 c-3 -3 -12 -4 -19 -1 -8 3 -5 6 6 6 11 1 17 -2
13 -5z m-2850 -10 c-3 -3 -12 -4 -19 -1 -8 3 -5 6 6 6 11 1 17 -2 13 -5z
m2910 0 c-3 -3 -12 -4 -19 -1 -8 3 -5 6 6 6 11 1 17 -2 13 -5z m-3000 -10 c-3
-3 -12 -4 -19 -1 -8 3 -5 6 6 6 11 1 17 -2 13 -5z m3090 0 c-3 -3 -12 -4 -19
-1 -8 3 -5 6 6 6 11 1 17 -2 13 -5z m-3140 -10 c-3 -3 -12 -4 -19 -1 -8 3 -5
6 6 6 11 1 17 -2 13 -5z m3190 0 c-3 -3 -12 -4 -19 -1 -8 3 -5 6 6 6 11 1 17
-2 13 -5z m-3270 -10 c-3 -3 -12 -4 -19 -1 -8 3 -5 6 6 6 11 1 17 -2 13 -5z
m-120 -20 c-3 -3 -12 -4 -19 -1 -8 3 -5 6 6 6 11 1 17 -2 13 -5z m3590 0 c-3
-3 -12 -4 -19 -1 -8 3 -5 6 6 6 11 1 17 -2 13 -5z m-2622 -333 c75 -34 114
-99 95 -156 -20 -62 -101 -115 -175 -115 -106 0 -204 99 -175 176 25 64 101
114 175 114 22 0 58 -9 80 -19z m3646 4 c85 -31 145 -109 136 -182 -18 -164
-269 -221 -386 -88 -78 90 -48 200 71 259 60 30 115 33 179 11z m-1730 -178
c42 -27 70 -82 62 -120 -8 -38 -56 -84 -104 -98 -82 -25 -179 40 -179 119 0
99 132 159 221 99z m317 -152 c125 -53 151 -186 52 -269 -89 -74 -214 -51
-277 52 -38 61 -27 117 34 174 57 55 125 70 191 43z m-3043 -53 c55 -28 112
-89 128 -137 14 -39 15 -40 73 -47 158 -18 294 -106 294 -189 0 -32 -55 -141
-100 -197 -48 -62 -104 -90 -273 -138 -144 -40 -144 -40 -417 8 -220 38 -472
120 -515 168 -11 12 6 6 49 -16 142 -76 375 -136 674 -173 77 -10 87 -9 206
24 150 41 210 70 259 124 43 48 107 170 107 205 0 34 -53 92 -111 122 -56 28
-157 54 -211 54 -32 0 -38 4 -38 20 0 34 -37 96 -77 129 -102 84 -246 79 -341
-12 -47 -45 -64 -83 -64 -140 0 -124 155 -226 295 -193 29 7 62 18 73 26 25
16 54 7 54 -15 0 -9 -11 -31 -25 -49 -35 -46 -108 -61 -295 -60 -141 1 -252
15 -380 49 -71 19 -18 12 125 -15 163 -31 321 -37 425 -16 83 17 112 32 132
69 17 33 -5 39 -57 16 -179 -79 -401 72 -354 240 16 58 88 132 150 154 59 22
161 17 214 -11z m4221 -110 c48 -24 101 -81 110 -118 27 -105 -91 -214 -231
-214 -101 0 -212 70 -231 145 -18 71 47 166 137 198 59 22 161 17 215 -11z
m-2541 -29 c101 -34 171 -140 145 -218 -62 -189 -373 -215 -476 -39 -42 71
-29 137 38 201 73 70 188 92 293 56z m-2864 -110 c33 -11 69 -33 96 -58 38
-37 43 -47 43 -85 0 -38 -5 -48 -45 -86 -106 -102 -324 -99 -419 6 -44 49 -52
79 -33 116 55 105 215 153 358 107z m1464 -30 c90 -31 109 -95 59 -197 -41
-84 -61 -100 -176 -137 -100 -33 -108 -34 -268 -34 -136 0 -183 4 -270 23
-134 30 -422 111 -433 121 -5 5 60 -11 145 -35 358 -102 553 -125 742 -85 55
11 124 33 155 48 49 25 60 36 89 91 49 96 44 151 -17 181 -52 27 -182 46 -193
29 -27 -41 -28 -47 -8 -53 11 -4 28 -17 36 -30 15 -23 14 -26 -5 -53 -11 -17
-36 -43 -55 -60 -73 -64 -268 -83 -495 -48 -109 17 -265 55 -257 63 2 3 28 -2
58 -11 72 -21 203 -43 332 -56 90 -9 122 -8 193 5 47 9 103 23 125 32 42 17
110 95 102 117 -3 8 -20 21 -38 31 l-33 18 21 33 21 34 65 -6 c36 -4 83 -13
105 -21z m550 -302 c78 -35 99 -83 59 -130 -36 -43 -84 -61 -159 -61 -75 0
-123 18 -159 60 -32 38 -32 49 -4 85 49 62 179 85 263 46z m-1648 -267 c-3 -3
-12 -4 -19 -1 -8 3 -5 6 6 6 11 1 17 -2 13 -5z m120 -20 c-3 -3 -12 -4 -19 -1
-8 3 -5 6 6 6 11 1 17 -2 13 -5z m50 -10 c-3 -3 -12 -4 -19 -1 -8 3 -5 6 6 6
11 1 17 -2 13 -5z m80 -10 c-3 -3 -12 -4 -19 -1 -8 3 -5 6 6 6 11 1 17 -2 13
-5z m60 -10 c-3 -3 -12 -4 -19 -1 -8 3 -5 6 6 6 11 1 17 -2 13 -5z m86 -11
c-7 -2 -19 -2 -25 0 -7 3 -2 5 12 5 14 0 19 -2 13 -5z m54 -9 c-3 -3 -12 -4
-19 -1 -8 3 -5 6 6 6 11 1 17 -2 13 -5z m106 -11 c-7 -2 -19 -2 -25 0 -7 3 -2
5 12 5 14 0 19 -2 13 -5z m3280 0 c-7 -2 -19 -2 -25 0 -7 3 -2 5 12 5 14 0 19
-2 13 -5z m-3220 -10 c-7 -2 -19 -2 -25 0 -7 3 -2 5 12 5 14 0 19 -2 13 -5z
m3160 0 c-7 -2 -19 -2 -25 0 -7 3 -2 5 12 5 14 0 19 -2 13 -5z m-3050 -10 c-7
-2 -19 -2 -25 0 -7 3 -2 5 12 5 14 0 19 -2 13 -5z m2940 0 c-7 -2 -21 -2 -30
0 -10 3 -4 5 12 5 17 0 24 -2 18 -5z m-2860 -10 c-7 -2 -21 -2 -30 0 -10 3 -4
5 12 5 17 0 24 -2 18 -5z m2780 0 c-7 -2 -19 -2 -25 0 -7 3 -2 5 12 5 14 0 19
-2 13 -5z m-2660 -10 c-7 -2 -19 -2 -25 0 -7 3 -2 5 12 5 14 0 19 -2 13 -5z
m2540 0 c-7 -2 -19 -2 -25 0 -7 3 -2 5 12 5 14 0 19 -2 13 -5z m-2450 -10 c-7
-2 -21 -2 -30 0 -10 3 -4 5 12 5 17 0 24 -2 18 -5z m2365 0 c-10 -2 -26 -2
-35 0 -10 3 -2 5 17 5 19 0 27 -2 18 -5z m-2215 -10 c-7 -2 -21 -2 -30 0 -10
3 -4 5 12 5 17 0 24 -2 18 -5z m2060 0 c-7 -2 -21 -2 -30 0 -10 3 -4 5 12 5
17 0 24 -2 18 -5z m-1935 -10 c-10 -2 -28 -2 -40 0 -13 2 -5 4 17 4 22 1 32
-1 23 -4z m1830 0 c-10 -2 -28 -2 -40 0 -13 2 -5 4 17 4 22 1 32 -1 23 -4z
m-1620 -10 c-16 -2 -40 -2 -55 0 -16 2 -3 4 27 4 30 0 43 -2 28 -4z m1415 0
c-13 -2 -35 -2 -50 0 -16 2 -5 4 22 4 28 0 40 -2 28 -4z m-1245 -10 c-16 -2
-40 -2 -55 0 -16 2 -3 4 27 4 30 0 43 -2 28 -4z m1080 0 c-16 -2 -40 -2 -55 0
-16 2 -3 4 27 4 30 0 43 -2 28 -4z m-525 -10 c-23 -2 -64 -2 -90 0 -26 2 -7 3
42 3 50 0 71 -1 48 -3z"/>
<path d="M5423 6059 c-41 -12 -103 -73 -104 -102 -4 -66 21 -106 84 -136 73
-35 155 -22 211 33 41 41 50 80 29 124 -32 67 -138 107 -220 81z"/>
<path d="M9056 6056 c-79 -29 -137 -112 -127 -181 6 -43 52 -96 104 -121 89
-41 185 -28 250 34 65 62 74 125 27 190 -54 75 -168 110 -254 78z"/>
<path d="M7309 5861 c-53 -53 -54 -99 -5 -146 60 -56 150 -54 200 6 66 78 6
179 -108 179 -43 0 -53 -4 -87 -39z"/>
<path d="M7665 5722 c-111 -52 -135 -166 -50 -241 83 -73 209 -57 264 33 76
122 -78 271 -214 208z"/>
<path d="M8777 5576 c-94 -35 -154 -107 -144 -172 22 -136 235 -201 368 -111
81 55 101 134 50 204 -53 74 -186 112 -274 79z"/>
<path d="M6239 5537 c-79 -30 -136 -89 -146 -151 -8 -49 2 -80 40 -122 122
-140 390 -99 437 67 19 66 -30 147 -115 191 -50 26 -165 34 -216 15z"/>
<path d="M3360 5429 c-54 -16 -113 -61 -133 -102 -18 -36 -18 -38 0 -74 52
-107 240 -146 377 -79 128 63 128 169 -1 232 -46 23 -73 29 -133 31 -41 1 -91
-3 -110 -8z"/>
<path d="M5408 5099 c-76 -22 -114 -93 -70 -132 56 -51 177 -63 252 -24 56 28
74 60 55 97 -27 53 -150 83 -237 59z"/>
<path d="M10990 3736 c0 -3 14 -12 30 -21 17 -9 30 -13 30 -11 0 3 -13 12 -30
21 -16 9 -30 13 -30 11z"/>
<path d="M11135 3648 c17 -12 59 -47 95 -77 36 -30 56 -44 45 -32 -22 25 -131
113 -155 125 -8 4 -1 -3 15 -16z"/>
<path d="M1454 3558 c-28 -29 -56 -62 -64 -73 -8 -11 10 6 39 37 29 32 62 65
74 73 12 8 17 15 11 15 -5 0 -32 -24 -60 -52z"/>
<path d="M11305 3490 c10 -11 20 -20 23 -20 3 0 -3 9 -13 20 -10 11 -20 20
-23 20 -3 0 3 -9 13 -20z"/>
<path d="M1360 3440 c-6 -11 -8 -20 -6 -20 3 0 10 9 16 20 6 11 8 20 6 20 -3
0 -10 -9 -16 -20z"/>
<path d="M11378 3370 c14 -32 28 -57 30 -55 5 4 -45 115 -52 115 -2 0 8 -27
22 -60z"/>
<path d="M1306 3325 c-3 -9 -6 -24 -5 -33 0 -9 5 -4 10 12 9 32 6 48 -5 21z"/>
<path d="M11412 3280 c0 -14 2 -19 5 -12 2 6 2 18 0 25 -3 6 -5 1 -5 -13z"/>
<path d="M1291 3254 c0 -11 3 -14 6 -6 3 7 2 16 -1 19 -3 4 -6 -2 -5 -13z"/>
<path d="M11422 3230 c0 -14 2 -19 5 -12 2 6 2 18 0 25 -3 6 -5 1 -5 -13z"/>
<path d="M1284 3135 c0 -55 1 -76 3 -47 2 29 2 74 0 100 -2 26 -3 2 -3 -53z"/>
<path d="M11433 3135 c0 -33 2 -45 4 -27 2 18 2 45 0 60 -2 15 -4 0 -4 -33z"/>
<path d="M11422 3040 c0 -14 2 -19 5 -12 2 6 2 18 0 25 -3 6 -5 1 -5 -13z"/>
<path d="M1292 3010 c0 -14 2 -19 5 -12 2 6 2 18 0 25 -3 6 -5 1 -5 -13z"/>
<path d="M11412 2985 c0 -16 2 -22 5 -12 2 9 2 23 0 30 -3 6 -5 -1 -5 -18z"/>
<path d="M1300 2959 c0 -13 5 -31 10 -39 7 -11 8 -5 4 20 -8 43 -14 51 -14 19z"/>
<path d="M11396 2924 c-4 -14 -5 -28 -3 -31 3 -2 8 8 11 23 4 14 5 28 3 31 -3
2 -8 -8 -11 -23z"/>
<path d="M1321 2890 c0 -8 6 -28 14 -45 17 -39 18 -21 0 25 -7 19 -14 28 -14
20z"/>
<path d="M11376 2865 c-3 -9 -6 -22 -5 -28 0 -7 5 -1 10 12 5 13 8 26 5 28 -2
2 -6 -3 -10 -12z"/>
<path d="M11345 2783 c-8 -20 -13 -38 -10 -41 3 -3 5 -3 5 0 0 3 7 22 15 42 8
20 13 36 10 36 -2 0 -12 -16 -20 -37z"/>
<path d="M1350 2805 c0 -5 5 -17 10 -25 5 -8 10 -10 10 -5 0 6 -5 17 -10 25
-5 8 -10 11 -10 5z"/>
<path d="M11305 2700 c-9 -16 -13 -30 -11 -30 3 0 12 14 21 30 9 17 13 30 11
30 -3 0 -12 -13 -21 -30z"/>
<path d="M1415 2670 c9 -16 18 -30 21 -30 2 0 -2 14 -11 30 -9 17 -18 30 -21
30 -2 0 2 -13 11 -30z"/>
<path d="M11270 2640 c-6 -11 -8 -20 -6 -20 3 0 10 9 16 20 6 11 8 20 6 20 -3
0 -10 -9 -16 -20z"/>
<path d="M1457 2599 c10 -17 24 -36 32 -42 8 -7 2 7 -14 31 -32 49 -45 57 -18
11z"/>
<path d="M11179 2508 c-54 -74 -244 -271 -354 -368 -35 -30 -42 -39 -17 -20
112 84 332 314 411 428 42 61 14 32 -40 -40z"/>
<path d="M1520 2510 c11 -16 26 -33 32 -36 7 -4 -1 9 -16 29 -34 44 -46 50
-16 7z"/>
<path d="M1598 2415 c41 -50 221 -229 277 -275 17 -14 -14 17 -67 68 -54 51
-132 130 -174 175 -43 45 -59 60 -36 32z"/>
<path d="M1935 2090 c10 -11 20 -20 23 -20 3 0 -3 9 -13 20 -10 11 -20 20 -23
20 -3 0 3 -9 13 -20z"/>
<path d="M10734 2068 l-19 -23 23 19 c21 18 27 26 19 26 -2 0 -12 -10 -23 -22z"/>
<path d="M1985 2050 c10 -11 20 -20 23 -20 3 0 -3 9 -13 20 -10 11 -20 20 -23
20 -3 0 3 -9 13 -20z"/>
<path d="M10645 2004 c-78 -58 -95 -78 -25 -29 53 37 100 76 90 74 -3 0 -32
-20 -65 -45z"/>
<path d="M2020 2026 c0 -2 8 -10 18 -17 15 -13 16 -12 3 4 -13 16 -21 21 -21
13z"/>
<path d="M2060 1996 c0 -2 14 -14 30 -26 17 -12 30 -19 30 -16 0 2 -13 14 -30
26 -16 12 -30 19 -30 16z"/>
<path d="M2130 1946 c0 -3 33 -27 73 -54 82 -55 107 -70 92 -55 -16 16 -165
114 -165 109z"/>
<path d="M10433 1859 c-35 -22 -46 -37 -15 -20 22 13 58 40 52 41 -3 0 -20
-10 -37 -21z"/>
<path d="M2325 1815 c11 -9 29 -21 40 -26 l20 -10 -20 16 c-11 9 -29 21 -40
26 l-20 10 20 -16z"/>
<path d="M10335 1799 c-27 -17 -54 -36 -60 -42 -11 -11 58 28 96 55 40 28 17
20 -36 -13z"/>
<path d="M2390 1776 c0 -3 9 -10 20 -16 11 -6 20 -8 20 -6 0 3 -9 10 -20 16
-11 6 -20 8 -20 6z"/>
<path d="M2440 1746 c0 -3 14 -12 30 -21 17 -9 30 -13 30 -11 0 3 -13 12 -30
21 -16 9 -30 13 -30 11z"/>
<path d="M10198 1719 c-21 -11 -38 -22 -38 -24 0 -3 18 4 40 15 22 11 40 23
40 25 0 7 0 7 -42 -16z"/>
<path d="M2530 1696 c0 -3 14 -12 30 -21 17 -9 30 -13 30 -11 0 3 -13 12 -30
21 -16 9 -30 13 -30 11z"/>
<path d="M10098 1664 c-27 -13 -48 -27 -48 -29 0 -3 23 6 50 20 28 14 50 28
50 30 0 7 1 7 -52 -21z"/>
<path d="M10015 1620 c-3 -6 1 -7 9 -4 18 7 21 14 7 14 -6 0 -13 -4 -16 -10z"/>
<path d="M2680 1615 c0 -7 121 -67 126 -63 2 2 -26 18 -61 36 -36 17 -65 30
-65 27z"/>
<path d="M9975 1600 c-3 -6 1 -7 9 -4 18 7 21 14 7 14 -6 0 -13 -4 -16 -10z"/>
<path d="M9935 1580 c-3 -6 1 -7 9 -4 18 7 21 14 7 14 -6 0 -13 -4 -16 -10z"/>
<path d="M9860 1545 c-25 -13 -40 -24 -35 -24 6 0 30 11 55 24 25 13 41 24 35
24 -5 0 -30 -11 -55 -24z"/>
<path d="M2860 1526 c0 -2 7 -7 16 -10 8 -3 12 -2 9 4 -6 10 -25 14 -25 6z"/>
<path d="M9790 1510 c-9 -6 -10 -10 -3 -10 6 0 15 5 18 10 8 12 4 12 -15 0z"/>
<path d="M2920 1495 c14 -8 30 -14 35 -14 6 0 -1 6 -15 14 -14 8 -29 14 -35
14 -5 0 1 -6 15 -14z"/>
<path d="M9720 1480 c-8 -5 -10 -10 -5 -10 6 0 17 5 25 10 8 5 11 10 5 10 -5
0 -17 -5 -25 -10z"/>
<path d="M3010 1455 c14 -8 30 -14 35 -14 6 0 -1 6 -15 14 -14 8 -29 14 -35
14 -5 0 1 -6 15 -14z"/>
<path d="M9660 1455 c-14 -8 -20 -14 -15 -14 6 0 21 6 35 14 14 8 21 14 15 14
-5 0 -21 -6 -35 -14z"/>
<path d="M3090 1420 c8 -5 20 -10 25 -10 6 0 3 5 -5 10 -8 5 -19 10 -25 10 -5
0 -3 -5 5 -10z"/>
<path d="M9580 1420 c-8 -5 -10 -10 -5 -10 6 0 17 5 25 10 8 5 11 10 5 10 -5
0 -17 -5 -25 -10z"/>
<path d="M3140 1400 c8 -5 20 -10 25 -10 6 0 3 5 -5 10 -8 5 -19 10 -25 10 -5
0 -3 -5 5 -10z"/>
<path d="M9505 1389 c-22 -10 -29 -16 -15 -13 28 7 80 33 65 33 -5 0 -28 -9
-50 -20z"/>
<path d="M3190 1380 c8 -5 20 -10 25 -10 6 0 3 5 -5 10 -8 5 -19 10 -25 10 -5
0 -3 -5 5 -10z"/>
<path d="M3240 1360 c8 -5 20 -10 25 -10 6 0 3 5 -5 10 -8 5 -19 10 -25 10 -5
0 -3 -5 5 -10z"/>
<path d="M9430 1360 c-8 -5 -10 -10 -5 -10 6 0 17 5 25 10 8 5 11 10 5 10 -5
0 -17 -5 -25 -10z"/>
<path d="M3290 1340 c8 -5 20 -10 25 -10 6 0 3 5 -5 10 -8 5 -19 10 -25 10 -5
0 -3 -5 5 -10z"/>
<path d="M9380 1340 c-8 -5 -10 -10 -5 -10 6 0 17 5 25 10 8 5 11 10 5 10 -5
0 -17 -5 -25 -10z"/>
<path d="M9285 1305 c-25 -12 -26 -14 -5 -9 28 7 60 23 45 23 -5 0 -23 -6 -40
-14z"/>
<path d="M3395 1300 c27 -12 43 -12 25 0 -8 5 -22 9 -30 9 -10 0 -8 -3 5 -9z"/>
<path d="M9175 1265 c-25 -12 -26 -14 -5 -9 28 7 60 23 45 23 -5 0 -23 -6 -40
-14z"/>
<path d="M3505 1260 c27 -12 43 -12 25 0 -8 5 -22 9 -30 9 -10 0 -8 -3 5 -9z"/>
<path d="M3565 1240 c27 -12 43 -12 25 0 -8 5 -22 9 -30 9 -10 0 -8 -3 5 -9z"/>
<path d="M9080 1235 c-19 -7 -28 -13 -20 -13 8 0 31 6 50 13 19 7 28 13 20 13
-8 0 -31 -6 -50 -13z"/>
<path d="M3625 1220 c27 -12 43 -12 25 0 -8 5 -22 9 -30 9 -10 0 -8 -3 5 -9z"/>
<path d="M9005 1210 c-13 -6 -15 -9 -5 -9 8 0 22 4 30 9 18 12 2 12 -25 0z"/>
<path d="M3685 1200 c27 -12 43 -12 25 0 -8 5 -22 9 -30 9 -10 0 -8 -3 5 -9z"/>
<path d="M8931 1189 c-18 -6 -31 -12 -29 -14 5 -5 78 14 78 20 0 6 -8 5 -49
-6z"/>
<path d="M3738 1183 c7 -3 16 -2 19 1 4 3 -2 6 -13 5 -11 0 -14 -3 -6 -6z"/>
<path d="M3830 1155 c19 -7 42 -13 50 -13 8 0 -1 6 -20 13 -19 7 -42 13 -50
13 -8 0 1 -6 20 -13z"/>
<path d="M8868 1163 c7 -3 16 -2 19 1 4 3 -2 6 -13 5 -11 0 -14 -3 -6 -6z"/>
<path d="M8798 1143 c7 -3 16 -2 19 1 4 3 -2 6 -13 5 -11 0 -14 -3 -6 -6z"/>
<path d="M3938 1123 c7 -3 16 -2 19 1 4 3 -2 6 -13 5 -11 0 -14 -3 -6 -6z"/>
<path d="M8728 1123 c7 -3 16 -2 19 1 4 3 -2 6 -13 5 -11 0 -14 -3 -6 -6z"/>
<path d="M4020 1100 c34 -11 60 -11 35 0 -11 5 -29 8 -40 8 -16 0 -15 -2 5 -8z"/>
<path d="M8658 1103 c7 -3 16 -2 19 1 4 3 -2 6 -13 5 -11 0 -14 -3 -6 -6z"/>
<path d="M8590 1090 c-20 -6 -21 -8 -5 -8 11 0 29 3 40 8 25 11 -1 11 -35 0z"/>
<path d="M4088 1083 c7 -3 16 -2 19 1 4 3 -2 6 -13 5 -11 0 -14 -3 -6 -6z"/>
<path d="M4158 1063 c6 -2 18 -2 25 0 6 3 1 5 -13 5 -14 0 -19 -2 -12 -5z"/>
<path d="M8475 1060 c-25 -11 1 -11 35 0 20 6 21 8 5 8 -11 0 -29 -3 -40 -8z"/>
<path d="M4238 1043 c6 -2 18 -2 25 0 6 3 1 5 -13 5 -14 0 -19 -2 -12 -5z"/>
<path d="M8418 1043 c6 -2 18 -2 25 0 6 3 1 5 -13 5 -14 0 -19 -2 -12 -5z"/>
<path d="M4288 1033 c7 -3 16 -2 19 1 4 3 -2 6 -13 5 -11 0 -14 -3 -6 -6z"/>
<path d="M8350 1030 c-20 -6 -21 -8 -5 -8 11 0 29 3 40 8 25 11 -1 11 -35 0z"/>
<path d="M4340 1020 c34 -11 60 -11 35 0 -11 5 -29 8 -40 8 -16 0 -15 -2 5 -8z"/>
<path d="M8298 1013 c7 -3 16 -2 19 1 4 3 -2 6 -13 5 -11 0 -14 -3 -6 -6z"/>
<path d="M4413 1003 c9 -2 23 -2 30 0 6 3 -1 5 -18 5 -16 0 -22 -2 -12 -5z"/>
<path d="M8243 1003 c9 -2 23 -2 30 0 6 3 -1 5 -18 5 -16 0 -22 -2 -12 -5z"/>
<path d="M4468 993 c7 -3 16 -2 19 1 4 3 -2 6 -13 5 -11 0 -14 -3 -6 -6z"/>
<path d="M8198 993 c7 -3 16 -2 19 1 4 3 -2 6 -13 5 -11 0 -14 -3 -6 -6z"/>
<path d="M4508 983 c6 -2 18 -2 25 0 6 3 1 5 -13 5 -14 0 -19 -2 -12 -5z"/>
<path d="M8148 983 c6 -2 18 -2 25 0 6 3 1 5 -13 5 -14 0 -19 -2 -12 -5z"/>
<path d="M4558 973 c7 -3 16 -2 19 1 4 3 -2 6 -13 5 -11 0 -14 -3 -6 -6z"/>
<path d="M8108 973 c7 -3 16 -2 19 1 4 3 -2 6 -13 5 -11 0 -14 -3 -6 -6z"/>
<path d="M4603 963 c9 -2 23 -2 30 0 6 3 -1 5 -18 5 -16 0 -22 -2 -12 -5z"/>
<path d="M8053 963 c9 -2 23 -2 30 0 6 3 -1 5 -18 5 -16 0 -22 -2 -12 -5z"/>
<path d="M4658 953 c6 -2 18 -2 25 0 6 3 1 5 -13 5 -14 0 -19 -2 -12 -5z"/>
<path d="M7998 953 c6 -2 18 -2 25 0 6 3 1 5 -13 5 -14 0 -19 -2 -12 -5z"/>
<path d="M4713 943 c9 -2 23 -2 30 0 6 3 -1 5 -18 5 -16 0 -22 -2 -12 -5z"/>
<path d="M7943 943 c9 -2 23 -2 30 0 6 3 -1 5 -18 5 -16 0 -22 -2 -12 -5z"/>
<path d="M4768 933 c6 -2 18 -2 25 0 6 3 1 5 -13 5 -14 0 -19 -2 -12 -5z"/>
<path d="M7888 933 c6 -2 18 -2 25 0 6 3 1 5 -13 5 -14 0 -19 -2 -12 -5z"/>
<path d="M4823 923 c9 -2 23 -2 30 0 6 3 -1 5 -18 5 -16 0 -22 -2 -12 -5z"/>
<path d="M7833 923 c9 -2 23 -2 30 0 6 3 -1 5 -18 5 -16 0 -22 -2 -12 -5z"/>
<path d="M4888 913 c6 -2 18 -2 25 0 6 3 1 5 -13 5 -14 0 -19 -2 -12 -5z"/>
<path d="M7768 913 c6 -2 18 -2 25 0 6 3 1 5 -13 5 -14 0 -19 -2 -12 -5z"/>
<path d="M4943 903 c9 -2 25 -2 35 0 9 3 1 5 -18 5 -19 0 -27 -2 -17 -5z"/>
<path d="M7703 903 c9 -2 25 -2 35 0 9 3 1 5 -18 5 -19 0 -27 -2 -17 -5z"/>
<path d="M5013 893 c9 -2 23 -2 30 0 6 3 -1 5 -18 5 -16 0 -22 -2 -12 -5z"/>
<path d="M7638 893 c6 -2 18 -2 25 0 6 3 1 5 -13 5 -14 0 -19 -2 -12 -5z"/>
<path d="M5078 883 c12 -2 30 -2 40 0 9 3 -1 5 -23 4 -22 0 -30 -2 -17 -4z"/>
<path d="M7568 883 c12 -2 30 -2 40 0 9 3 -1 5 -23 4 -22 0 -30 -2 -17 -4z"/>
<path d="M5153 873 c9 -2 25 -2 35 0 9 3 1 5 -18 5 -19 0 -27 -2 -17 -5z"/>
<path d="M7493 873 c9 -2 23 -2 30 0 6 3 -1 5 -18 5 -16 0 -22 -2 -12 -5z"/>
<path d="M5228 863 c12 -2 32 -2 45 0 12 2 2 4 -23 4 -25 0 -35 -2 -22 -4z"/>
<path d="M7408 863 c12 -2 32 -2 45 0 12 2 2 4 -23 4 -25 0 -35 -2 -22 -4z"/>
<path d="M5313 853 c9 -2 25 -2 35 0 9 3 1 5 -18 5 -19 0 -27 -2 -17 -5z"/>
<path d="M7323 853 c9 -2 25 -2 35 0 9 3 1 5 -18 5 -19 0 -27 -2 -17 -5z"/>
<path d="M5403 843 c15 -2 39 -2 55 0 15 2 2 4 -28 4 -30 0 -43 -2 -27 -4z"/>
<path d="M7223 843 c15 -2 39 -2 55 0 15 2 2 4 -28 4 -30 0 -43 -2 -27 -4z"/>
<path d="M5518 833 c12 -2 30 -2 40 0 9 3 -1 5 -23 4 -22 0 -30 -2 -17 -4z"/>
<path d="M7128 833 c12 -2 30 -2 40 0 9 3 -1 5 -23 4 -22 0 -30 -2 -17 -4z"/>
<path d="M5617 823 c18 -2 50 -2 70 0 21 2 7 4 -32 4 -38 0 -55 -2 -38 -4z"/>
<path d="M6983 823 c20 -2 54 -2 75 0 20 2 3 4 -38 4 -41 0 -58 -2 -37 -4z"/>
<path d="M5778 813 c18 -2 45 -2 60 0 15 2 0 4 -33 4 -33 0 -45 -2 -27 -4z"/>
<path d="M6843 813 c15 -2 39 -2 55 0 15 2 2 4 -28 4 -30 0 -43 -2 -27 -4z"/>
<path d="M5978 803 c46 -2 118 -2 160 0 42 1 5 3 -83 3 -88 0 -123 -2 -77 -3z"/>
<path d="M6538 803 c45 -2 119 -2 165 0 45 1 8 3 -83 3 -91 0 -128 -2 -82 -3z"/>
</g>
</svg>
