<?xml version="1.0" encoding="utf-8"?>
<!-- Generator: Adobe Illustrator 23.0.3, SVG Export Plug-In . SVG Version: 6.00 Build 0)  -->
<svg version="1.1" id="Layer_1" xmlns="http://www.w3.org/2000/svg" xmlns:xlink="http://www.w3.org/1999/xlink" x="0px" y="0px"
	 viewBox="0 0 864 864" style="enable-background:new 0 0 864 864;" xml:space="preserve">
<style type="text/css">
	.st0{fill:#FF0000;}
</style>
<g>
	<g>
		<path class="st0" d="M589.1,383c0,0,1.1-4.8,9.9-7.6c1.6-0.5,4-0.4,6.2,0.4h0.1c15.7,5,3.7,27.6-16.2,41.1
			c-17.8-11.9-31.6-35.6-15.9-41c0,0,3.5-1.2,6.1-0.3C587.7,378,589.1,383,589.1,383z"/>
	</g>
	<g>
		<path class="st0" d="M548.8,439.6c0,0-0.9-4.8,5.9-11c1.3-1.1,3.5-2,5.8-2.1l0.1-0.1c16.4-1.9,14.8,23.6,2.2,44.1
			c-21.1-3.5-43.4-19.5-31.4-30.9c0,0,2.7-2.5,5.4-2.8C545.5,435.6,548.8,439.6,548.8,439.6z"/>
	</g>
	<g>
		<path class="st0" d="M645.8,439.2c0,0,2.9-4,12-3.2c1.6,0.2,3.8,1.2,5.5,2.8l0.1,0c12.5,10.7-7.2,26.9-30.8,31.7
			c-11.8-17.8-15.4-45,1.1-44c0,0,3.7,0.3,5.8,2C646.5,434.1,645.8,439.2,645.8,439.2z"/>
	</g>
</g>
<g>
	<path d="M770.5,525.6c-3.8,13.2-13.2,16.4-23.8,17.7c-12.8,1.5-12.1-0.8-12.1,13.8c0,21.7,0,43.3,0,65
		c-0.1,31.3-21.9,53.3-53.4,53.4c-53.5,0.1-106.9,0.1-160.4,0c-29.4-0.1-51.5-22.1-51.8-51.5c-0.2-23.6-0.2-47.3,0.1-70.9
		c0.1-6.5-2.1-8.8-8.5-9.5c-6.6-0.8-13.3-2.8-19.5-5.5c-5.5-2.4-7.9-7.9-7.1-13.8c0.8-6.2,5.8-8.7,11.1-9.9
		c5.8-1.3,11.7-2.1,17.7-2.5c4.5-0.3,6.4-1.8,6.3-6.4c-0.2-5.5,0-11,0-16.6c-0.1-4.4,1.9-6.4,6.4-6.4c9.1,0.1,18.1-0.1,27.2,0
		c3.9,0,5.7-1.1,4.8-5.5c-3.2-15.3-6.2-30.7-9.4-46.1c-0.4-1.9-1-4.3-2.4-5.4c-11.8-9.3-13.1-23.6-17.3-36.4
		c-3.5-10.6-5.3-21.8-7.8-32.8c-1.4-6.1-1.9-12.3,4.4-16c7.4-4.4,15.5-7.5,23.8-3.5c2.6,1.2,4.4,6,4.9,9.4c2.2,14.6,3.8,29.3,5.6,44
		c0.6,5,1.8,10.1,1.9,15.1c0.1,4.5,0.2,9.7-1.8,13.4c-2.7,4.8-2.5,9-1.5,13.8c3.1,14.7,6.2,29.4,9,44.1c0.8,4.4,2.7,5.8,7,5.8
		c65.8-0.1,131.7-0.1,197.5-0.1c1.5,0,2.9-0.4,5.8-0.8c-2.1-2.5-3.5-4.3-5.1-5.9c-37.7-38.5-75.5-76.9-113.1-115.5
		c-3.5-3.6-7.3-7.4-9.2-11.9c-1.2-2.9-0.3-8.2,1.8-10.5c1.8-2,7.1-2.6,10-1.4c4.3,1.7,8.4,4.9,11.7,8.4c7.1,7.3,15,12.9,24.5,16.4
		c16.1,6,27.2,18.6,38.6,30.6c4.3,4.5,7.4,6.2,14,3.3c15.9-7.1,36.6,1.5,47.8,18.7c7.8,12,10.6,24.6,3.5,38.2
		c-0.9,1.7,0,5.1,1.2,6.8c2.6,3.5,5.9,6.6,9.1,9.6c11.9,10.9,21,23.6,26.8,38.9c2.1,5.6,6.6,10.3,10.3,15.2c3.7,4.9,8,9.4,11.3,14.6
		c2.6,4.1,2,8.4-1.9,11.9c-3.9,3.6-7.8,2.7-11.3-0.3c-6.9-5.8-13.6-11.9-20.4-17.8C775,529.3,773.2,527.8,770.5,525.6z M737.3,436.5
		c0.4-10.7-14.8-26.1-24.4-25.7c-1.3,0.1-2.9,0.8-3.8,1.8c-0.4,0.4,0.4,2.5,1.2,3.3c7.2,7.4,14.5,14.8,21.8,22.1
		c0.8,0.8,2.7,1.6,3.3,1.2C736.6,438.5,737.1,436.9,737.3,436.5z M757.7,513.5c-7.9-8.1-14.7-15-22.8-23.3c0,7.1-0.2,12.5,0.2,17.9
		c0.1,1.2,1.9,3.1,3.2,3.3C744.2,512.3,750.2,512.8,757.7,513.5z M755,524.3c0-1.1,0.1-2.1,0.1-3.2c-5.7-0.6-11.5-1.3-17.2-1.6
		c-0.9,0-1.9,1.8-2.9,2.8c1.1,1.1,2.3,3.1,3.4,3.1C743.9,525.3,749.4,524.7,755,524.3z M448.2,521.2c0,1,0.1,2,0.1,3
		c5.7,0.5,11.4,1.2,17.1,1.4c1,0,2.8-1.6,3-2.7c0.2-1-1.5-3.2-2.2-3.2C460.2,519.9,454.2,520.6,448.2,521.2z"/>
	<path d="M574.8,361c-17.6-16.4-17.1-53.2,0.5-68.9c9.7-8.6,21-8.9,32.3-4.6c12.1,4.7,23.7,10.8,35.8,15.6
		c12.9,5.1,26.3,7.3,40.2,4.2c20.3-4.5,28.9-24.2,17.9-41.9c-8.6-13.8-22-20.6-37.1-24.7c-24.4-6.6-48.6-2.9-72.9,1.2
		c-15.4,2.6-30.9,5.9-46.7,2c-9.5-2.4-15.8-8.2-17.1-16.3c-1.3-8.6,2.1-14.4,12.6-19.4c-1.4,1.5-3,3-4.2,4.7
		c-3.2,4.5-6.5,9.2-4.3,15.2c2.4,6.6,7.9,10.3,14.2,10.1c14.5-0.6,29.1-1.5,43.3-4c23.6-4.2,47-8.4,71-3.6
		c22.1,4.4,41.4,13.4,51.2,35.3c12,26.9-4.6,52.6-34.1,53.1c-17,0.3-32.6-5.1-47.4-12.8c-6.7-3.5-13.4-6.8-20.1-10.2
		c-22.2-11.4-38.7,4.8-42.5,22C564.1,333.1,567.2,347.3,574.8,361z"/>
	<path d="M122.3,420.6c-2.4,1.1-7.1,2-13,2c-21.9,0-32.4-17.4-32.4-40.9c0-31.2,18-43.4,34.7-43.4c5.9,0,10,1.1,11.6,2.2l-2.8,13.5
		c-1.9-0.9-4.1-1.6-7.8-1.6c-9.4,0-18,7.9-18,28.4c0,19.8,7.8,27.5,18,27.5c2.8,0,6-0.6,8-1.2L122.3,420.6z"/>
	<path d="M180.8,378.9c0,31.2-11.5,43.9-27.8,43.9c-19.5,0-27.2-19.9-27.2-42.6c0-22.6,9.3-42.1,28.3-42.1
		C174.9,338,180.8,360,180.8,378.9z M143.1,380.4c0,18.8,3.7,28.4,10.5,28.4c7,0,9.7-12.3,9.7-29.1c0-14.5-2.3-27.6-9.8-27.6
		C146.8,352,143.1,362.6,143.1,380.4z"/>
	<path d="M242.1,378.9c0,31.2-11.5,43.9-27.8,43.9c-19.5,0-27.2-19.9-27.2-42.6c0-22.6,9.3-42.1,28.3-42.1
		C236.3,338,242.1,360,242.1,378.9z M204.5,380.4c0,18.8,3.7,28.4,10.5,28.4c7,0,9.7-12.3,9.7-29.1c0-14.5-2.3-27.6-9.8-27.6
		C208.2,352,204.5,362.6,204.5,380.4z"/>
	<path d="M252.7,339h16.7v37.2h0.3c1.4-3.4,2.8-7.1,4.2-10.7l11.5-26.5h18.4l-19.3,36l19.5,46.8h-18.2l-12.5-34.3l-3.8,6.8v27.5
		h-16.7V339z"/>
	<path d="M347.7,385.4H328v22.4h22.2v14h-38.9V339h37.4v14H328v19h19.7V385.4z"/>
	<path d="M361.6,340.2c4.2-1,10.3-1.6,17-1.6c10.8,0,18.4,2.5,23.9,7.4c7.4,6.4,11.2,17.3,11.2,33.4c0,16.7-4.5,28.6-12,35
		c-5.7,5.4-14.3,8-26.3,8c-5.2,0-10.5-0.5-13.8-0.9V340.2z M378.3,409c0.8,0.2,2,0.2,2.9,0.2c8,0,15.1-7.6,15.1-30.5
		c0-17-4.6-27.3-14.7-27.3c-1.1,0-2.3,0-3.3,0.4V409z"/>
	<path d="M108.1,460.6l3.3,25.9c0.9,6.5,1.7,12.5,2.2,18.2h0.4c1-5.7,2.3-12.3,3.4-17.9l5.5-26.2h12.9l5.4,25.6
		c1.3,6.8,2.4,12.7,3.2,18.6h0.4c0.4-5.7,1.1-11.9,2.2-18.4l3.8-25.7h16.5l-16.1,60.1H137l-4.7-21c-1.3-5.5-2.4-11.9-3.2-18.8h-0.3
		c-0.8,7-2.2,13.3-3.6,18.9l-5.4,20.9h-14.3l-15.3-60.1H108.1z"/>
	<path d="M190.8,444.6c0.1,5.2-3.7,8.7-8.8,8.7c-4.6,0-8.4-3.6-8.3-8.7c-0.1-5.4,4-8.7,8.5-8.7C187.1,435.9,190.8,439.2,190.8,444.6
		z M174.1,520.7v-60.1h16.7v60.1H174.1z"/>
	<path d="M222.2,444.4v16.2h12.3V472h-12.3v27.4c0,7,3.1,8.7,6.4,8.7c1.7,0,2.9-0.1,4.3-0.4l0.1,12.5c-2.3,0.6-5.7,1.1-10.2,1.1
		c-4.8,0-9.1-1.1-12-3.8c-3.4-3.2-5.4-7.7-5.4-17.2V472h-7.4v-11.4h7.4v-12.4L222.2,444.4z"/>
	<path d="M242.2,435.7h16.7v31.2h0.3c1.4-2.1,3.3-3.8,5.4-5.2c2.4-1.4,5.4-2.1,8.4-2.1c11.5,0,16,9.3,16,24.6v36.5h-16.7v-36.5
		c0-5.9-1.1-11.1-6.1-11.1c-2.8,0-5.2,1.6-6.5,5.7c-0.3,1-0.6,3.2-0.6,4.5v37.3h-16.7V435.7z"/>
	<path d="M208.9,546.6h16.7v69.2h22.1v13.6h-38.8V546.6z"/>
	<path d="M304.7,586.6c0,31.2-11.5,43.9-27.8,43.9c-19.5,0-27.2-19.9-27.2-42.6c0-22.6,9.3-42.1,28.3-42.1
		C298.9,545.7,304.7,567.6,304.7,586.6z M267.1,588c0,18.8,3.7,28.4,10.5,28.4c7,0,9.7-12.3,9.7-29.1c0-14.5-2.3-27.6-9.8-27.6
		C270.8,559.7,267.1,570.2,267.1,588z"/>
	<path d="M327.3,629.4L308,546.6h18.5l6.1,35.8c1.5,8.8,3.3,19,4.5,28.7h0.3c1.1-9.8,2.6-19.8,4.1-29.1l5.9-35.4h18.4l-19.7,82.8
		H327.3z"/>
	<path d="M409.4,593.1h-19.7v22.4h22.2v14H373v-82.8h37.4v14h-20.7v19h19.7V593.1z"/>
</g>
</svg>
